/* XPM */
static char *_9314_ef84ed0f7111b51f7d9506a1ffd9b1c1fb1466ae320f82a0ff0cef12ff1efb66[] = {
/* columns rows colors chars-per-pixel */
"64 64 74 1 ",
"  c #56452B",
". c #58472D",
"X c #5B492E",
"o c #5E4C31",
"O c #614E32",
"+ c #645235",
"@ c #695537",
"# c #67553A",
"$ c #6B5639",
"% c #6E593B",
"& c #725D3D",
"* c #6D5C41",
"= c #735F40",
"- c #766141",
"; c #7B6544",
": c #7F6847",
"> c #76664B",
", c #796649",
"< c #7E694A",
"1 c #7D6C51",
"2 c #846C4B",
"3 c #886F4E",
"4 c #87704F",
"5 c #88704F",
"6 c #826F51",
"7 c #857253",
"8 c #8A7352",
"9 c #8F7857",
"0 c #867459",
"q c #8C7658",
"w c #8E795A",
"e c #927C5D",
"r c #867761",
"t c #8C7D66",
"y c #917E63",
"u c #8E8069",
"i c #968162",
"p c #998465",
"a c #92826B",
"s c #9A876B",
"d c #9D896B",
"f c #938671",
"g c #968976",
"h c #9E8C71",
"j c #9A8D7A",
"k c #9E907B",
"l c #A18E6F",
"z c #A18F73",
"x c #A29276",
"c c #A39379",
"v c #A29684",
"b c #AB9C85",
"n c #A69B8A",
"m c #B5A68E",
"M c #ABA190",
"N c #AFA698",
"B c #B6AD9E",
"V c #B7AFA1",
"C c #BAAFA0",
"Z c #BCB3A5",
"A c #BDB5A9",
"S c #C2BAAE",
"D c #C6BEB2",
"F c #C7C0B4",
"G c #C8C1B6",
"H c #CCC5BA",
"J c #CDC8BF",
"K c #D0C9BF",
"L c #CFCAC1",
"P c #D3CDC5",
"I c #D4CFC8",
"U c #D6D1CA",
"Y c #D9D5CE",
"T c None",
/* pixels */
"TTTTTTTTTTTTTTTTTTTTTTTTTTTTTTTTTTTTTTTTTTTTTTTTTTTTTTTTTTTTTTTT",
"TTTTTTTTTTTTTTTTTTTTTTTTTTTTTTTTTTTTTTTTTTTTTTTTTTTTTTTTTTTTTTTT",
"TTTTTTTTTTTTTTTTTTTTTTTTTTTTTTTTTTTTTTTTTTTTTTTTTTTTTTTTTTTTTTTT",
"TTTTTTTTTTTTTTTTTTTTTTTTTTTTTTTTTTTTTTTTTTTTTTTTTTTTTTTTTTTTTTTT",
"TTTTTTTTTTTTTTTTTTTTTTTTTTTTTTTTTTTTTTTTTTTTTTTTTTTTTTTTTTTTTTTT",
"TTTTTTTTTTTTTTTTTTTTTTTTTTTTTTTTTTTTTTTTTTTTTTTTTTTTTTTTTTTTTTTT",
"TTTTTTTTTTTTTTTTTTTTTTTTTTTTTTTTTTTTTTTTTTTTTTTTTTTTTTTTTTTTTTTT",
"TTTTTTTTTTTTTTTTTTTTTTTTTTTTTTTTTTTTTTTTTTTTTTTTTTTTTTTTTTTTTTTT",
"TTTTTTTTTTTTTTTTTTTTTTTTTTTTTTTTTTTTTTTTTTTTTTTTTTTTTTTTTTTTTTTT",
"TTTTTTTTTTTTTTTTTTTTTTTTTTTTTTTTTTTTTTTTTTTTTTTTTTTTTTTTTTTTTTTT",
"TTTTTTTTTTTTTTTTTTTTTTTTTTTppee99eeeidTTTTTTTTTTTTTTTTTTTTTTTTTT",
"TTTTTTTTTTTTTTTTTTTTTTTTp98833343885589epTTTTTTTTTTTTTTTTTTTTTTT",
"TTTTTTTTTTTTTTTTTTTTTdeq83335558888833558qiTTTTTTTTTTTTTTTTTTTTT",
"TTTTTTTTTTTTTTTTTTTTi83583572;&&%=-,28845359sTTTTTTTTTTTTTTTTTTT",
"TTTTTTTTTTTTTTTTTTl933388<%o..X.oXX..+-183358eTTTTTTTTTTTTTTTTTT",
"TTTTTTTTTTTTTTTTTd9353q<@..O@%$@$%%@+o.o&75553eTTTTTTTTTTTTTTTTT",
"TTTTTTTTTTTTTTTTdq8557-X.O$$&%%%$&&$%%$O.+28335eTTTTTTTTTTTTTTTT",
"TTTTTTTTTTTTTTTT88824% o$@%%%&$@%%%%%%%%@XX,5338eTTTTTTTTTTTTTTT",
"TTTTTTTTTTTTTTTq5887$ O%$+%$&%%%%&&$%%%%%%oX,5363pTTTTTTTTTTTTTT",
"TTTTTTTTTTTTTTp3488- O%%$$&&&%%%%&&%$&&%%%%oo<33<qTTTTTTTTTTTTTT",
"TTTTTTTTTTTTTT9248:.X%%&$&$$&%&$%&%$%%&%%&&%o+63,3eTTTTTTTTTTTTT",
"TTTTTTTTTTTTTT8238+.$%%&$==<07788q04-==%&%%&$ ,3,3eTTTTTTTTTTTTT",
"TTTTTTTTTTTTTe532<.O%%%&$%azzzzzzlde%16+%&&&&o+2;29TTTTTTTTTTTTT",
"TTTTTTTTTTTTTq424*.+%&%&+=SAtjva-fka1VVO$&%&&OX2;38TTTTTTTTTTTTT",
"TTTTTTTTTTTTT3324+o$&%&%@-DUPYPy@tJIJUA#@&&&&%X;:35TTTTTTTTTTTTT",
"TTTTTTTTTTTTT3324o+$%&&%@,HUUUn+@+fUUUD#@&&&%%o=,35TTTTTTTTTTTTT",
"TTTTTTTTTTTTT3224O++%&&%$6LIUIMa$gAUUUF*@&&&$$+&223TTTTTTTTTTTTT",
"TTTTTTTTTTTTT3327++@&&-%@0DHKIYD*NYUUUF*@--&&$O&233TTTTTTTTTTTTT",
"TTTTTTTTTTTTT3327>,@&&-%@1ADDKUPVGPILHV*+&--%&O-254TTTTTTTTTTTTT",
"TTTTTTTTTTTTTT2247a%--&&$=1wtgvnvvvjfr>oO---&&o>345TTTTTTTTTTTTT",
"TTTTTTTTTTTTTT3241u&--&&&=$+OO++++++O+++@---&&O<555TTTTTTTTTTTTT",
"TTTTTTTTTTTTTT3254u&-&--&=-=-&&&-&----------&-O2585TTTTTTTTTTTTT",
"TTTTTTTTTTTTTT3232O%----&-;&;&;&---2&--;---;%-o4454TTTTTTTTTTTTT",
"TTTTTTTTTTTTTT2332.$------;-&-&&---;-;-;-;;-%-+4444TTTTTTTTTTTTT",
"TTTTTTTTTTTTTT3233O%;--;-;-&;-&--;-2;;;;-;-;&&O4554TTTTTTTTTTTTT",
"TTTTTTTTTTTTTT3335+%--&;-;;;&;;-;-;2;;;;;;;--&+9848TTTTTTTTTTTTT",
"TTTTTTTTTTTTTT5258$%;;;;;;;;&;;&;;;;;;;;;;;;-%+955TTTTTTTTTTTTTT",
"TTTTTTTTTTTTTT8358&@;;;;;;;;;-;;;;;2;;;;-;;;;%$955TTTTTTTTTTTTTT",
"TTTTTTTTTTTTTTT349&+;;;;;;-;;;;;;;;2-2;2;4wq,@%955TTTTTTTTTTTTTT",
"TTTTTTTTTTTTTTT348;+;;;;:;;;;2;;;;-2;;;;:xkki@>855TTTTTTTTTTTTTT",
"TTTTTTTTTTTTTTT325<+>;;:;;;;;;;;;;;:;:;:2bmmh+,953TTTTTTTTTTTTTT",
"TTTTTTTTTTTTTTT3551+;;;:2;;2;2;;::::;:::-9mcq+<853TTTTTTTTTTTTTT",
"TTTTTTTTTTTTTTT2224-2:;:;;2;2;;;:::2;:::;%=2:+2853TTTTTTTTTTTTTT",
"TTTTTTTTTTTTTTT35440y;::2;;;;22;::::;2::22;2<+2833TTTTTTTTTTTTTT",
"TTTTTTTTTTTTTTT22381w<2:;::22::;;2:2;2:2&22;;O4532TTTTTTTTTTTTTT",
"TTTTTTTTTTTTTTT23381s<::2;2;::2::::2;22:22;22O8383TTTTTTTTTTTTTT",
"TTTTTTTTTTTTTTT2238*;:22::2:22::2:2:;222;2;;;+5384TTTTTTTTTTTTTT",
"TTTTTTTTTTTTTTTT428=%22:22:2:::2:222:2:22222;@838TTTTTTTTTTTTTTT",
"TTTTTTTTTTTTTTTT428,&22:2:22:22:22222222:222;$843TTTTTTTTTTTTTTT",
"TTTTTTTTTTTTTTTT425<%22::2:2:2222222:2222222-%753TTTTTTTTTTTTTTT",
"TTTTTTTTTTTTTTTT234<$22<::22:22222322222:342&=q53TTTTTTTTTTTTTTT",
"TTTTTTTTTTTTTTTT4447%222:222222222322333:242$-78<TTTTTTTTTTTTTTT",
"TTTTTTTTTTTTTTTT2337$2;2<232223222322333-332$>242TTTTTTTTTTTTTTT",
"TTTTTTTTTTTTTTTT353q=TTTTTTTTTTTTTTTTTTTTTTTT22<3TTTTTTTTTTTTTTT",
"TTTTTTTTTTTTTTTTTTTTTTTTTTTTTTTTTTTTTTTTTTTTTTTTTTTTTTTTTTTTTTTT",
"TTTTTTTTTTTTTTTTTTTTTTTTTTTTTTTTTTTTTTTTTTTTTTTTTTTTTTTTTTTTTTTT",
"TTTTTTTTTTTTTTTTTTTTTTTTTTTTTTTTTTTTTTTTTTTTTTTTTTTTTTTTTTTTTTTT",
"TTTTTTTTTTTTTTTTTTTTTTTTTTTTTTTTTTTTTTTTTTTTTTTTTTTTTTTTTTTTTTTT",
"TTTTTTTTTTTTTTTTTTTTTTTTTTTTTTTTTTTTTTTTTTTTTTTTTTTTTTTTTTTTTTTT",
"TTTTTTTTTTTTTTTTTTTTTTTTTTTTTTTTTTTTTTTTTTTTTTTTTTTTTTTTTTTTTTTT",
"TTTTTTTTTTTTTTTTTTTTTTTTTTTTTTTTTTTTTTTTTTTTTTTTTTTTTTTTTTTTTTTT",
"TTTTTTTTTTTTTTTTTTTTTTTTTTTTTTTTTTTTTTTTTTTTTTTTTTTTTTTTTTTTTTTT",
"TTTTTTTTTTTTTTTTTTTTTTTTTTTTTTTTTTTTTTTTTTTTTTTTTTTTTTTTTTTTTTTT",
"TTTTTTTTTTTTTTTTTTTTTTTTTTTTTTTTTTTTTTTTTTTTTTTTTTTTTTTTTTTTTTTT"
};
