/* XPM */
static char *_1020_6b89ed34105b6adfa7274f6b4141ae952f10e83d4afcb8ff45796b4bd7a0213e[] = {
/* columns rows colors chars-per-pixel */
"64 64 116 2 ",
"   c #7B4720",
".  c #814B25",
"X  c #965E2D",
"o  c #8A5930",
"O  c #8F5F39",
"+  c #905C37",
"@  c #996035",
"#  c #9B653C",
"$  c #9D6A3F",
"%  c #A0673A",
"&  c #A26C3D",
"*  c #A8703F",
"=  c #A36C42",
"-  c #A86E45",
";  c #A36F4A",
":  c #A57142",
">  c #AB7445",
",  c #AE7947",
"<  c #A47249",
"1  c #AC754B",
"2  c #AD7A4C",
"3  c #B47C4D",
"4  c #B97F4D",
"5  c #A67651",
"6  c #AB7551",
"7  c #AB7950",
"8  c #B47E52",
"9  c #B97F53",
"0  c #B47E58",
"q  c #B97F59",
"w  c #B4814D",
"e  c #B8804F",
"r  c #B68254",
"t  c #BB8454",
"y  c #BD8957",
"u  c #B5825C",
"i  c #BC855A",
"p  c #BD895C",
"a  c #BD8A62",
"s  c #BF8F69",
"d  c #BF9065",
"f  c #C08857",
"g  c #C0875C",
"h  c #C38B5C",
"j  c #C98F5D",
"k  c #C5925D",
"l  c #C8905F",
"z  c #C08660",
"x  c #C48D62",
"c  c #C88F63",
"v  c #C48F69",
"b  c #C98F69",
"n  c #C69163",
"m  c #CB9364",
"M  c #CD9966",
"N  c #C5926A",
"B  c #CC956A",
"V  c #CD996B",
"C  c #D09665",
"Z  c #D09866",
"A  c #D0976C",
"S  c #D39B6C",
"D  c #CC9773",
"F  c #CD9B73",
"G  c #D59E71",
"H  c #D89F73",
"J  c #D49E78",
"K  c #D6A36F",
"L  c #D9A16F",
"P  c #D6A173",
"I  c #DBA374",
"U  c #DDA975",
"Y  c #D5A279",
"T  c #DDA679",
"R  c #DEA97B",
"E  c #E0A676",
"W  c #E1A876",
"Q  c #E0A77B",
"!  c #E3AB7C",
"~  c #E9AF7D",
"^  c #E6B27E",
"/  c #E9B17F",
"(  c #D6A680",
")  c #DCA780",
"_  c #DEAB82",
"`  c #DEAE88",
"'  c #E1A781",
"]  c #E5AD81",
"[  c #E8AF83",
"{  c #E5AF89",
"}  c #E8AE88",
"|  c #E6B183",
" . c #EBB384",
".. c #EDB985",
"X. c #E6B289",
"o. c #EDB589",
"O. c #EDB98B",
"+. c #F0B685",
"@. c #F1B887",
"#. c #F0B78B",
"$. c #F2BB8C",
"%. c #F9BF8D",
"&. c #EDBB92",
"*. c #F4BD92",
"=. c #F8BF93",
"-. c #F6C18F",
";. c #F8C08F",
":. c #F5C192",
">. c #FAC293",
",. c #FEC996",
"<. c #F7C299",
"1. c #FDC59A",
"2. c #FFCA9B",
"3. c #FFC6A0",
"4. c #FFCDA1",
"5. c #FFD3A8",
/* pixels */
". 0 B v B N 0 < a B N N V 8 = p u p d V d 1 7 n n p 8 x M 2 # r J i b D = 6 Q q D z x z - q D b b D N 2 < y d d r d V : $ u F 5 ",
"a D ) *.&.x a *.o.Y O.<.R V _ O.-.-.:.| V Y &.O._ | :.] d F ! a H T 3.' b } ' #.} =.' b ' =.} } o.*.R N -.2...K -.| N ` ( u &.N ",
"v *.6 N &.N X.R ' | O.R n R <.R ^ Y O.M V X.U ^ K | T n Y -.:.R q =.z x =.Q J *.} ' A H *.#.' #.X.V u O.^ Y N -.R r R X.&.` s a ",
"u *.{ < a O.] R ] <.T i P O.! P R <.y V ,.R X.^ O.R d n O...R -.' - x ! H } #.} Q z G #.' H ' } J p :.X.X.K 2.R r V R X.&.` ` o ",
"B <.J V | T o.X.:.R n U :.^ V O.^ V M y G ^ U ..^ n P O.^ R O.| H c !  .} [ Q #.S I #. .S  .$.B i d V | | X.K y I o.o.| { ) X.; ",
"Y r V Y O.1.V O.R k V ..^ K R ^ U y :.^ r ^ X.U y V R U ^ -...M A ~ ! $.[ E #.g S o.! S ! ! m m |  .r R :.| 2 X.O.V &.{ { J D N ",
": P ! O.R U :.^ V K .. .K ^ ..M y ^ K ,.U w -.w K -.^ K -.-.n k ! +.+.S %.=.4 ! .. .I W o.S j ! X.O.&.& U y R R P X.T &.o.v &.v ",
"8 | ..R P R O.2 K ..^ U ..^ M k ^ ^ -.K -.U & U ..M U -.R k M ^ +.! S  .~ f C %./ W @.+.C l ! / O.| | | & P O.U U O.<.v v { &.v ",
"d O.R P | ^ p S w |  .U ^ M y | ^ K ..-.K k K ..^ U -.| M k ^  .L ~ ! / C l l Z W +./ Z l W +.~ R *.! x U ..^ ^  . .P h | &.{ 6 ",
"k  .V <.P i  .| O.w M -.M k ^ U M -.-.K k U  ...^ ^ K U M ^ U ^ W W ~ f E L / j W W Z Z W E L ..$.S n R ^ ^ W -...U x R *.G ' b ",
"n T :.R i ^ ! O.-.V k M M U ^ U | :.P i U ..^ ^ ^ ..R w ......K / W f W I ,.~ ! l f l W ~ ~ ~ +.! x K $.! K / / V n o.! ' { ) b ",
"i 4.F n Y | | | R :.n 2 ^ ..U | :.U k G -.^ P R ..P 2 ^ X.O.S O.W C Z W %...o.+.f f ~ / G ..>.G n T O.^ S ^ / K , U | O.O.) =.= ",
"s X.a J *._ Y &.] K P _ | | | O.P k P O.^ Y R | G d U n ! R :.U m S [ E o.o.[ S Z ^ $.[ E o.] c G o.! G / +.U l I t ~ [ { ' B 0 ",
"i i Y ] Y *.' *.G N | *.R | :.R n P O...P ^ X.n d  ...U 2 | X.p I ! I =.! @.S A W ,.! G >.~ j I .. .I ! +.Z f ~ $.I f G Q z ' z ",
"; { Y &.Y { 2.N N X.O.Y _ O.R n T X.O.R P | T p *.Y X.O.| 2 p I $.I  .[ >.C H ! ! [ I T +.S m $. .! ~ ~ L f Z ;.@./ Q 9 b Q ' c ",
"0 &._ T *.*.N N o.| T T | R d r | X._ | o.V x | R O.| ..] N x  .I #. .] m G Q $. .C  .*.i 9 ] $.! / o.G f L %.~ E ;.! h G ' +.z ",
"J ] ! O.R I m  .@.E E ! ] m V _ r R $.o.m m [ I #.! o.! m P $.#.! o.#.M m [ ! ! S $.! r L ] j S $.@.L t ~ / ! ! / ~ c A *.] +.x ",
"8 <.R $.! x ! ~ L +.E ~ p T R -.! t G M m ~ I [ ! =.I j I o.! E ..$.c I  .! >.S  .o.f I $.T ! j L h j ;.S ! ! ;. .r ] [ ! } } A ",
"u X.*.n h %.! ~ / W ~ f T Y $. .=.I > S ~ G $.!  .! C S $. .I ! $.t S T +.#.S *.~ t ! ~  .>.I ! t t  .!  .I $.! c Q ! $.' H 3.3 ",
"h O.m x m E @./ +.E m H I o.| X.#.S G E  .o.! o.! m I %. .I !  .C m j E  .I ~ [ j G I o. .! $.I t @./ E / >.I m S [ $.S [ } H 3 ",
"h Y x O.! f C %.C Z S  .! X.| O.c G +.! ! $.[ / l G $. .S ! o.B c  .I j S o.@.f S  .I ! @.! I m / @.E +.@.! j G #.! ! T  .S x z ",
"8 m ] $.+. .4 S C S +.L *.^ X.G j *.Q !  .W #.M G $.o.E ~ Q M C ! ! >.S x Q m M ! Q =.! ! ! g  .;.Z +. ./ f ! / +.] H +.G q *.h ",
"< :.H o.%./ ! > W / I $.R $.G n [ ! $.I ! o.f M #.@.! ! +.S h ! [ %.! =.I , S  .I $.! $.I g #. .I W W ..4 L ! o.[ G =.A g [ $.x ",
"x ]  . .~ ! C L  .I ..$.O.n V _ [  .S ] +.m f m o.I  . .m c ! !  .[ $.I S E E o.$.! $.E f  .=.I L ..! f Z m I  .! o.C c } ' #.x ",
"r X...]  .l C @.%.~ E ;.n n O.! I T ! [ h G #.+.9  .[ M S ! Q !  .! I S S $.>.I =.! S A !  .I I ..~ t L %. .r S =.A C ' H ' =.x ",
"i o.*.Y t G ,./ S W >.C P o.] | Q +.~ 9 ~ ! $. .! m f m E o. .E $.! j S $. .M  . .! c ! $.I  .$.E f L W %.I ~ A g C H ! [ +.o.b ",
"n *.R h E +.+.L ! E ~ , G $.o.|  . .f I ! $.I >.$.t f  ...! o.$.E B G o.[ G I  .I , I +. .$.! Q l C / $.I %.#.j 1 [ +.! } #.Q 3 ",
"N R h S >./ S W ! ~ 4  .2 R o.| ] h S [  .I #. .S S [ #.! ] @.! j S $. .C ! $.G j G j ! +.!  .f S  .W $.! $.S m [ #.[ #.#.Q A 1 ",
"p n G O.! S ~ +.C f +.[ $.> | I m A  .! E  .$.c j $.$.S ! >.[ j G *...S  . .S j U #.! r I o.r ! @.I / ..>.j M ! 1.H E =.} A H C ",
"= _ O.] ! ! ~ S C W  .#.o.] < V C $.I [ ! %.m m [  .I Q $.I j G %.~ Q o. .A j G $.$.! ! j e ! ! ! W %.+.M C  .[ Q ! #.! g H =.x ",
"= O.| I >...m f ~ +.~ E o...8 V  .! ! I 1.M M ! $.I I $.o.h f ! o.S [ $.S h Q  .$.A *.#.t A  .I S %./ E 4 @.$.Q A +.#.A 9 Q *.q ",
"r x P O. .m S W H ~ +.%. .g ! |  .[ #.$.j B ! #.! E  .Q m S I f I %.! j S ! ! ! I 2.E f E .. .$. .@.S f $.[ G Q #.T z G H x A H ",
"I U y I m m R ! [ E $.[ g H =.[ E ! ..S h o.>.I G $.[ f S >.[ [ r E I t  .! I $.o. .j B $...! ! $.M m [ #.H Q [ H A c $.1.Q b q ",
"d R :.: m  . .R ! $.! c H +.Q E  .$.m m ! ~ [ ! $.! r I o.E =.! I j 4 $.I ! o.~ [ 9 !  .Q  .I o.j G ! >.} +.Q [ S A } $.H } #.+ ",
"h 2.p n ..R o.R $.E f A >.+.C [ ! I j g ~ o.E $. .4 E  .! +.! $.[ >  . .! W #.E j I I $.I G >.S A * !  .E H >.8 c }  .} } #.' - ",
"M P k O.*.| m 2.G C E %.} S Q %.S j ! I m ! [ ! f G ! o.! ! %.S m $.I o.o.[ | m S +.$.S ! o.C C E  .f G ] $.c H T [ Q o.#.J A A ",
", N :.^ o.I ....j Q +.! E +.[ C m  .Q >.G t [ h S $.! E #. .I h ! o. .S  .>.t G $. .! E  .S t !  .=. .e ! h A o.#.H } =.J A } b ",
", .. .R I R >.2 S $.! S #.%.S g  .S 2.! [ ! & E $.! ..Q  .! t  . .! Q ~ ..> G +. . .I $.S t o.!  .!  .! % A +.Q } #.} H b ' =.z ",
"G ^ R R S $.h x c !  .#.! g h } I 2.S o.$.h ! ! ! $.I  .! h  .>.! G ! =.t B j o.~ G >.S t  . . . .=./ g  . .+.[ Q =.H A ' #.' z ",
"y X.R U O.y S $.L t G $.S C ~ E  .I >.! f I  .$.! ~ =.S h +.$.G S  .! f G +.~ , ! $.S m ! Q ! ~  ./ m S  .#.T o.=.b c #.#.' ' g ",
"d U ..^ n V O... .! h 9 S E Q [ ! =.I h ! o.I ~ !  .! S ~ E %.G +.o.h m @.o./ ! j j p T  .I  .o.E A A  .=.E H =.A b o.' [ } } b ",
"p -.R y G ^ | ] +.! c h E [ ! ~ o.~ S C  .$.[ S  .! * G [ 2.M >.! 3 I  . .=.~ *.m 3 $. .S >.$.I m S #.#.S ! $.Q - o.Q o.} C =.- ",
"M ^ n n  .! R $.[ G C Q #.! Q =. .t M =.$.S I %.E r  .r ! I $.W m S G %.+.! >.A m ..I o. .Q o.j G +.+.H E [ Q m ] 8 +.Q } #.x q ",
"p y V | ! T O...M I !  .+.~ ~ [ j G  .[ I T  .I m E #.$.-  .! h S [ +.I o.+.m M  .[ ~ ! O.! j I $.+.H Q #.H g E =.Q 6 ] =.q } q ",
"> P | ^ R O.:.m c  .=.I I #.[ f S $.$.I !  .G j I o.o.!  .f l m / I ! ! $.S f o.$.A  .$.G C I $.#.I ~ o.A j ! $.#.Q [ z z J ' c ",
"r ..| R $.o.P h  .~ ! ! ! ! S 4 ! [ ~ #.o.Z j ! ~ o.~ -.! r S  . .o.T >.L g $. .S $.E ! S 9 ! o.! o...S c Q #.} } o.#.z b ' #.z ",
"M X.R  .$.S n R >.G H +.! C A I m I $.! M S ! ] !  .+.o.g S $.$. .! 1.S g $. .R I  . .t S ! 4 ! ! %.G g Q #.Q ! #.Q A Q #.' =.z ",
"n R $.O.V x ....E E [ ! c C o.$.I f G ! m S  .! ~  .! t ! %.I @.E $.Z l / %. .S o.! j S o.%.! t  .h m  .! H [ %.[ b H } #.Q } H ",
"w X._ K d R O.^ I +.~ j S ^ U ^ ;.W e 4 ^ ! / o.;.S j I $./ L L >.j Z ! / ~ ~ ! I L S E ..$...! * l / ~ ! [ +.! m G #. .] H o.x ",
"d X.^ u w O...U / ! f L ~ W >.^ / E 4 %.I ! @.E I L L ! ! I ~ ;.C Z 4 E / ..! ~ f S ~ ~ ~ / ~ E f ! +./ K %.! m I [ #.E Q ! [ - ",
"F F r -.^ w K -./ f L ~ I O.| O.S f %.....E ..~ e W $.! L ! / L f / I f ..E / m S I ! +.+.! L C / @.! ! >.W m I o.E ! [ ~ A H 9 ",
"w d ` &.^ R y U l Z E / | I ..K g >.I / / W ! L L / / ! ! / L t !  .,.I t $., L @.! E .. .L Z I @.L ! ~ +.m S +...I Q ! Q c Q A ",
"< &.Y &.....U & S / L ! $.] P n $.~ ! S ! %.8 h ,./ W / ! Z C W / @.W +.! X  .E W / @./ G Z W %.U U U -.& I o.| T  . .A B T *.n ",
"F F ` &.` ^ p K +.W +.I ..! r | $.S ! ~ ~ f H f L ..@.! Z m I o...W ..+.e E W $.L @.@.L Z !  .! I W -.r ! r U | ..! T N I ' *.p ",
"u &.( X.K d ..-.W ;.!  .I p | O.T A  .#.t ! S +.r I o.S m I  .I o.~ =.m G @.$.! +.[ I S ! #.[ A I $.y ! ^ | 1 ] X.B B R o.R X.N ",
"u &.&.` M R R ^ E E $.I n | O.] I +. .4 S #.o.+.E j f A W ! ! ~ +.[ t S $. .I I =.G M U  .~ !  .O.y S R o...o.3 N m I ) { ' *.B ",
"F ( ` N G o. .A E %.S > [ *.' T [ } j C +.[ [ $.*.x 3 H +.! ! +.I S S [ *.E S =.E - H =.Q !  .] y P X.^ | :.| n y ! Y ] O.X.{ 1 ",
"a &.a Y 1.G Q +.~ S c ! 4 I | O.[ 8 Q [ ! #.! $.A A +.1.} } +.] G S  .[ H [ $.A h } f S *.] Q h K R ^ _ X. .R V ] T <.X._ O.N 8 ",
"s s _ _ X.{ S $.Q 9 +.$.T a &.T h H H #.' Q =.c h ! +.H Q  .! A A o. .G Q [ H j ! $.[ 9 Q =.g I X.P U -.| M N | X.X.F <.{ a X.a ",
"5 ` &.X._ ] =.c j H ] *. .I u p A +.#.H +.=.G S $.=.Q H *.[ A I  .#.[ ] $.H x ! ~ $.[ H 9 9 E Q .._ | O.Y M P :.X.R O._ N _ &.D ",
"O :.` Y X.) H c Q =.[ [ &.! i J } ] ] ' } H g ] #.H H #.} g 9 T $.H ' o.A C Q Q o.} =.=.x x *.R P -...n d | O.Y Y _ &.N 7 ) &.0 ",
"u s ` ` o.R g ] ] G  .E { i J ] } #.! =.H g $.[ H A #.} g A [ z H [ [ A x Q } ' #.H } b A *.T T .._ P V R O.X.Y X._ v X.T a X.a ",
"F ( d ` ) x $.Q } +.[ >.S { | *.[ H 1.Q b #.o.} } o.#.A c =.5.S x } Q c ! } } +.#.=.x H *.o.<.| :.K V X.:._ R o.&.h J &.*.{ a F ",
"5 F u o - c g c j A m - < p F a g A 1 1 C m x h h b 1 - H b 8 H z X - c x i x b h & 8 B A q 2 V w r d d p i s N $ N a a N F v   "
};
