/* XPM */
static char *_1483_41da4db2ca270ac81219ba3d41bec96299083964c227275dfeaadd5f1dbc139c[] = {
/* columns rows colors chars-per-pixel */
"64 64 171 2 ",
"   c #0D0D0B",
".  c #14140D",
"X  c #1B1B1A",
"o  c #2A0B0E",
"O  c #2A1F11",
"+  c #2F210E",
"@  c #38270F",
"#  c #25231C",
"$  c #342613",
"%  c #3C2D1A",
"&  c #282622",
"*  c #402C0D",
"=  c #4B340F",
"-  c #55390A",
";  c #422F14",
":  c #493517",
">  c #513711",
",  c #533A14",
"<  c #5B3F15",
"1  c #473C28",
"2  c #63440F",
"3  c #714C0C",
"4  c #7D530D",
"5  c #654515",
"6  c #694612",
"7  c #6B4A16",
"8  c #734E13",
"9  c #775113",
"0  c #7B5414",
"q  c #554B3A",
"w  c #634C2B",
"e  c #695638",
"r  c #765E37",
"t  c #4E4A41",
"y  c #6C5A41",
"u  c #655F57",
"i  c #776446",
"p  c #6D6558",
"a  c #7F7260",
"s  c #821228",
"d  c #B4263B",
"f  c #82560C",
"g  c #86590B",
"h  c #8B5C0A",
"j  c #935F06",
"k  c #815613",
"l  c #835914",
"z  c #8A5C11",
"x  c #95620B",
"c  c #9A650A",
"v  c #9D690D",
"b  c #9B6607",
"n  c #8D621C",
"m  c #8F6010",
"M  c #946015",
"N  c #976817",
"B  c #94691A",
"V  c #A36B07",
"C  c #AA6F06",
"Z  c #A36B0B",
"A  c #AA6F09",
"S  c #AD7106",
"D  c #AC710A",
"F  c #B47505",
"G  c #B77805",
"H  c #BC7B05",
"J  c #B37609",
"K  c #B6790A",
"L  c #BB7C0B",
"P  c #A67316",
"I  c #AA771E",
"U  c #B47C16",
"Y  c #B87C18",
"T  c #8C6625",
"R  c #9D6720",
"E  c #85693D",
"W  c #906D32",
"Q  c #A2762C",
"!  c #B37F21",
"~  c #BD7C22",
"^  c #A56C3B",
"/  c #A57B32",
"(  c #A57D3C",
")  c #C17E02",
"_  c #A43C4A",
"`  c #8C5D5E",
"'  c #8C744F",
"]  c #94665E",
"[  c #8F7751",
"{  c #BF7C5A",
"}  c #BA7A4C",
"|  c #946260",
" . c #9A7C70",
".. c #AA6F6B",
"X. c #AD7266",
"o. c #BC7C6B",
"O. c #A8717C",
"+. c #B37678",
"@. c #CD515E",
"#. c #CD5862",
"$. c #C76267",
"%. c #BF8928",
"&. c #AE833C",
"*. c #C68100",
"=. c #C88200",
"-. c #C48209",
";. c #C18213",
":. c #CA963E",
">. c #9D835B",
",. c #A78349",
"<. c #BD9143",
"1. c #BC985C",
"2. c #A68A5C",
"3. c #95876F",
"4. c #AE9162",
"5. c #AA946F",
"6. c #B89865",
"7. c #A28F72",
"8. c #A49378",
"9. c #CA9C51",
"0. c #C49B5A",
"q. c #C09C63",
"w. c #CA827B",
"e. c #C4A46D",
"r. c #CBA86F",
"t. c #D1AA6D",
"y. c #DEB26A",
"u. c #CDA970",
"i. c #DBB273",
"p. c #D3B27B",
"a. c #E1B46D",
"s. c #E5BC7A",
"d. c #EABE7A",
"f. c #ECC17D",
"g. c #B67B88",
"h. c #99938A",
"j. c #AE9E85",
"k. c #B1A28B",
"l. c #BAAB93",
"z. c #BDB39E",
"x. c #B7B1A7",
"c. c #CB8694",
"v. c #D78E9D",
"b. c #DD919D",
"n. c #E5959E",
"m. c #C7A98B",
"M. c #D1A693",
"N. c #C9B69B",
"B. c #D6BF9A",
"V. c #EC9AAA",
"C. c #E395A4",
"Z. c #F59FB2",
"A. c #CEBCA0",
"S. c #F7A1B3",
"D. c #FCA3B5",
"F. c #FCA4B8",
"G. c #DEC195",
"H. c #D6C09F",
"J. c #F3C680",
"K. c #F7C981",
"L. c #FDCE84",
"P. c #D4C1A5",
"I. c #E6D1B3",
"U. c #F4DEBD",
"Y. c #C8CACD",
"T. c #F6E2C0",
"R. c #FBE5C3",
"E. c #FFE9C7",
"W. c #DFE0E2",
"Q. c #E5E4E4",
"!. c None",
/* pixels */
"!.!.!.!.!.!.!.!.!.!.!.!.!.!.!.!.!.!.!.!.!.!.!.!.!.!.!.!.!.!.!.!.!.!.!.!.!.!.!.!.!.!.!.!.!.!.!.!.!.!.!.!.!.!.!.!.!.!.!.!.!.!.!.!.",
"!.!.!.!.!.!.!.!.!.!.!.!.!.!.!.!.!.!.!.!.!.!.!.!.!.!.!.!.!.!.!.!.!.!.!.!.!.!.!.!.!.!.!.!.!.!.!.!.!.!.!.!.!.!.!.!.!.!.!.!.!.!.!.!.",
"!.!.!.!.!.!.!.!.!.!.!.!.!.!.!.!.!.!.!.!.!.!.!.!.!.!.!.!.!.!.!.!.!.!.!.!.!.!.!.!.!.!.!.!.!.!.!.!.!.!.!.!.!.!.!.!.!.!.!.!.!.!.!.!.",
"!.!.!.!.!.!.!.!.!.!.!.!.!.!.!.!.!.!.!.!.!.!.!.!.!.!.!.!.!.!.!.!.!.!.!.!.!.!.!.!.!.!.!.!.!.!.!.!.!.!.!.!.!.!.!.!.!.!.!.!.!.!.!.!.",
"!.!.!.!.!.!.!.!.!.!.!.!.!.!.!.!.!.!.!.!.!.!.!.!.!.!.!.!.!.!.!.!.!.!.!.!.!.!.!.!.!.!.!.!.!.!.!.!.!.!.!.!.!.!.!.!.!.!.!.!.!.!.!.!.",
"!.!.!.!.!.!.!.!.!.!.!.!.!.!.!.!.!.!.!.!.!.!.!.!.!.!.!.!.!.!.!.!.!.!.!.!.!.!.!.!.!.!.!.!.!.!.!.!.!.!.!.!.!.!.!.!.!.!.!.!.!.!.!.!.",
"!.!.!.!.!.!.!.!.!.!.!.!.!.!.!.!.!.!.!.!.!.!.!.!.!.!.!.!.!.!.!.!.!.!.!.!.!.!.!.!.!.!.!.!.!.!.!.!.!.!.!.!.!.!.!.!.!.!.!.!.!.!.!.!.",
"!.!.!.!.!.!.!.!.!.!.!.!.!.!.!.!.!.!.!.!.!.!.!.!.!.!.!.!.!.!.!.!.!.!.!.!.!.!.!.!.!.!.!.!.!.!.!.!.!.!.!.!.!.!.!.!.!.!.!.!.!.!.!.!.",
"!.!.!.!.!.!.!.!.!.!.!.!.!.!.!.!.!.!.!.!.!.!.!.!.!.!.!.!.!.!.!.!.!.!.!.!.!.!.!.!.!.!.!.!.!.!.!.!.!.!.!.!.!.!.!.!.!.!.!.!.!.!.!.!.",
"!.!.!.!.!.!.!.!.!.!.!.!.!.!.!.!.!.!.!.!.!.!.!.!.!.!.!.!.!.!.!.!.!.: ; !.!.!.!.!.!.!.!.!.!.!.!.!.!.!.!.!.!.!.!.!.!.!.!.!.!.!.!.!.",
"!.!.!.!.!.!.!.!.!.!.!.!.!.!.!.!.!.!.!.!.!.!.!.!.!.!.!.!.!.!.!.!.f F f 5 !.!.!.!.!.!.!.!.!.!.!.!.!.!.!.!.!.!.!.!.!.!.!.!.!.!.!.!.",
"!.!.!.!.!.!.!.!.!.!.!.!.!.!.!.!.!.!.!.!.!.!.!.!.!.!.!.!.!.!.!.!.H H f 9 !.!.!.!.!.!.!.!.!.!.!.!.!.!.!.!.!.!.!.!.!.!.!.!.!.!.!.!.",
"!.!.!.!.!.!.!.!.!.!.!.!.!.!.!.!.!.!.!.!.!.!.!.!.!.!.!.!.!.!.!.v ) F 6 j !.!.!.!.!.!.!.!.!.!.!.!.!.!.!.!.!.!.!.!.!.!.!.!.!.!.!.!.",
"!.!.!.!.!.!.!.!.!.!.!.!.!.!.!.!.!.!.!.!.!.!.!.!.!.!.!.@ + !.!.!.) V 8 v N !.!.!.!.!.!.!.!.!.!.!.!.!.!.!.!.!.!.!.!.!.!.!.!.!.!.!.",
"!.!.!.!.!.!.!.!.!.!.!.!.!.!.!.!.!.!.!.!.!.!.!.!.!.!.z S C 3 + !.L v z Z K Z B !.!.!.!.!.!.!.!.!.!.!.!.!.!.!.!.!.!.!.!.!.!.!.!.!.",
"!.!.!.!.!.!.!.!.!.!.!.!.!.!.!.!.!.!.!.!.!.!.!.!.!.!.L =.=.*.b 5 !.Z A *.H J z !.!.!.!.!.!.!.!.!.!.!.!.!.!.!.!.!.!.!.!.!.!.!.!.!.",
"!.!.!.!.!.!.!.!.!.!.!.!.!.!.!.!.!.!.!.!.!.!.!.!.!.!.) =.=.=.=.H v D *.=.F F 4.h.!.!.!.!.!.!.!.!.!.!.!.!.!.!.!.!.!.!.!.!.!.!.!.!.",
"!.!.!.!.!.!.!.!.!.!.!.!.!.!.!.!.!.!.!.!.!.!.!.!.!.!.H c k c ) =.*.*.*.*.H F m.Y.!.!.!.!.!.!.!.!.!.!.!.!.!.!.!.!.!.!.!.!.!.!.!.!.",
"!.!.!.!.!.!.!.!.!.!.!.!.!.!.!.!.!.!.!.!.!.!.!.!.!.!.R +.c.| M =.*.*.*.*.*.H 6.W.!.!.!.!.!.!.!.!.!.!.!.!.!.!.!.!.!.!.!.!.!.!.!.!.",
"!.!.!.!.!.!.!.!.!.!.!.!.!.!.!.!.!.!.!.!.!.!.!.!.!.l o.F.F.Z...D *.*.*.*.*.*.9.Q.!.!.!.!.!.!.!.!.!.!.!.!.!.!.!.!.!.!.!.!.!.!.!.!.",
"!.!.!.!.!.!.!.!.!.!.!.!.!.!.!.!.!.!.!.!.!.!.!.!.!.!.n.D.D.D.V.^ ) =.*.*.=.) ;.x.!.!.  !.!.!.!.!.!.!.!.!.!.!.!.!.!.!.!.!.!.!.!.!.",
"!.!.!.!.!.!.!.!.!.!.!.!.!.!.!.!.!.!.!.!.!.!.!.!.!.!.V.S.D.D.F.w.G =.*.) J ) ;.3.X !.!.!.!.!.!.!.!.!.!.!.!.!.!.!.!.!.!.!.!.!.!.!.",
"!.!.!.!.!.!.!.!.!.!.!.!.!.!.!.!.!.!.!.!.!.!.!.!.!.!.C.D.D.S.F.n.Y =.*.*.F Z L T X p & !.!.!.!.!.!.!.!.!.!.!.!.!.!.!.!.!.!.!.!.!.",
"!.!.!.!.!.!.!.!.!.!.!.!.!.!.!.!.!.!.!.!.!.!.!.!.!.!.c.D.D.V.b.V.~ ) L G *.J 0 > p I.l.!.!.!.!.!.!.!.!.!.!.!.!.!.!.!.!.!.!.!.!.!.",
"!.!.!.!.!.!.!.!.!.!.!.!.!.!.!.!.!.!.!.!.!.!.!.!.!.!.O.S.D.V.` X.L ) ) A v Z J M 8.R.P.!.!.!.!.!.!.!.!.!.!.!.!.!.!.!.!.!.!.!.!.!.",
"!.!.!.!.!.!.!.!.!.!.!.!.!.!.!.!.!.!.!.!.!.!.!.!.!.!.!.C.D.D.+.M ) ) =.=.H Z j z 7.T.N.!.!.!.!.!.!.!.!.!.!.!.!.!.!.!.!.!.!.!.!.!.",
"!.!.!.!.!.!.!.!.!.!.!.!.!.!.!.!.!.!.!.!.!.!.!.!.!.!.!.g.S.D.Z.} ) =.=.=.) ) =.P P.U.3.!.!.!.!.!.!.!.!.!.!.!.!.!.!.!.!.!.!.!.!.!.",
"!.!.!.!.!.!.!.!.!.!.!.!.!.!.!.!.!.!.!.!.!.!.!.!.!.!.!.!.v.D.D.{ ) =.) Y q./ g , k.k.!.!.!.!.!.!.!.!.!.!.!.!.!.!.!.!.!.!.!.!.!.!.",
"!.!.!.!.!.!.!.!.!.!.!.!.!.!.!.!.!.!.!.!.!.!.!.!.!.!.!.!.!.v.S.o.H *.%.G.E.A.X   q !.!.!.!.0 !.!.!.!.!.!.!.!.!.!.!.!.!.!.!.!.!.!.",
"!.!.!.!.!.!.!.!.!.!.!.!.!.!.!.!.!.!.!.!.!.!.!.!.!.!.!.!.!.!.g.] S H e.R.E.A.. # e = !.!.M l 5 !.!.!.!.!.!.!.!.!.!.!.!.!.!.!.!.!.",
"!.!.!.!.!.!.!.!.!.!.!.!.!.!.!.!.!.!.!.!.!.!.!.!.!.!.!.!.!.!.!.!.x H B.R.E.M.o 1 P F c 6 Z V M !.!.!.!.!.!.!.!.!.!.!.!.!.!.!.!.!.",
"!.!.!.!.!.!.!.!.!.!.!.!.!.!.!.!.!.!.!.!.!.!.!.!.!.!.!.!.!.!.!.!.4 L B.E.E.w.s r -.=.=.H H *.v !.!.!.!.!.!.!.!.!.!.!.!.!.!.!.!.!.",
"!.!.!.!.!.!.!.!.!.!.!.!.!.!.!.!.!.!.!.!.!.!.!.!.!.!.!.!.!.!.!.!.!.Z p.E.E.$.d Q =.=.=.*.*.-.f !.!.!.!.!.!.!.!.!.!.!.!.!.!.!.!.!.",
"!.!.!.!.!.!.!.!.!.!.!.!.!.!.!.!.!.!.!.!.!.!.!.!.!.!.!.!.!.!.!.!.!.2 ,.R.T.@.d B x x c Z H Z !.!.!.!.!.!.!.!.!.!.!.!.!.!.!.!.!.!.",
"!.!.!.!.!.!.!.!.!.!.!.!.!.!.!.!.!.!.!.!.!.!.!.!.!.!.!.!.!.!.!.!.!.h 7 N.T.#._ !.!.!.!.!.J c !.!.!.!.!.!.!.!.!.!.!.!.!.!.!.!.!.!.",
"!.!.!.!.!.!.!.!.!.!.!.!.!.!.!.!.!.!.!.!.!.!.!.!.!.!.!.!.!.!.!.!.f *.Z w 8.M. .!.!.!.!.!.!.9 !.!.!.!.!.!.!.!.!.!.!.!.!.!.!.!.!.!.",
"!.!.!.!.!.!.!.!.!.!.!.!.!.!.!.!.!.!.!.!.% % !.!.!.!.!.!.!.!.!.!.V =.*.x [ x.!.!.!.!.< !.!.!.!.!.!.!.!.!.!.!.!.!.!.!.!.!.!.!.!.!.",
"!.!.!.!.!.!.!.!.!.!.!.!.!.!.!.!.!.!.!.!.!.: % !.!.!.!.!.!.!.!.6 H *.*.*.T u !.!.!.!.v !.!.!.!.!.!.!.!.!.!.!.!.!.!.!.!.!.!.!.!.!.",
"!.!.!.!.!.!.!.!.!.!.!.!.!.!.!.!.!.!.!.!.!.!., !.!.!.!.!.!.!.!.h ) *.*.*.H 4 !.!.!.Z x , !.!.!.!.!.!.!.!.!.!.!.!.!.!.!.!.!.!.!.!.",
"!.!.!.!.!.!.!.!.!.!.!.!.!.!.!.!.!.!.!.!.!.!.!.< !.!.!.!.!.!.!.J =.H *.*.*.*.x 7 !.L ) g !.!.!.!.!.!.!.!.!.!.!.!.!.!.!.!.!.!.!.!.",
"!.!.!.!.!.!.!.!.!.!.!.!.!.!.!.!.!.!.!.!.!.!.!.7 !.!.!.!.!.!.x *.=.J A *.=.*.=.-.C *.*.g !.!.!.!.!.!.!.!.!.!.!.!.!.!.!.!.!.!.!.!.",
"!.!.!.!.!.!.!.!.!.!.!.!.!.!.!.!.!.!.!.!.!.!.!.!.9 !.!.!.; 0 G *.*.;.} v *.=.=.=.*.*.G v !.!.!.!.!.!.!.!.!.!.!.!.!.!.!.!.!.!.!.!.",
"!.!.!.!.!.!.!.!.!.!.!.!.!.!.!.!.!.!.!.!.!.!.!.!.0 !.!.- Z ) *.*.*.:.e.: 3 b G G K J 9 !.!.!.!.!.!.!.!.!.!.!.!.!.!.!.!.!.!.!.!.!.",
"!.!.!.!.!.!.!.!.!.!.!.!.!.!.!.!.!.!.!.!.!.!.0 S l 9 - G =.=.*.*.;.i.4.!.!.+ @ < !., !.!.!.!.!.!.!.!.!.!.!.!.!.!.!.!.!.!.!.!.!.!.",
"!.!.!.!.!.!.!.!.!.!.!.!.!.!.!.!.!.!.!.!.!.!.G *.x > S *.*.*.*.H 9.f.y + !.!.!.!.!.!.!.!.!.!.!.!.!.!.!.!.!.!.!.!.!.!.!.!.!.!.!.!.",
"!.!.!.!.!.!.!.!.!.!.!.!.!.!.!.!.!.!.!.!.!.D *.*.x h *.*.*.*.G &.f.6.0 c 5 !.!.!.!.!.!.!.!.!.!.!.!.!.!.!.!.!.!.!.!.!.!.!.!.!.!.!.",
"!.!.!.!.!.!.!.!.!.!.!.!.!.!.!.!.!.!.!.!.l L *.*.j F =.=.*.G ( f.L.&.*.*.g !.!.!.!.!.!.!.!.!.!.!.!.!.!.!.!.!.!.!.!.!.!.!.!.!.!.!.",
"!.!.!.!.!.!.!.!.!.!.!.!.!.!.!.!.!.!.!.!.G *.G G x *.*.=.G ( f.L.f.I *.*.0 q !.!.!.!.!.!.!.!.!.!.!.!.!.!.!.!.!.!.!.!.!.!.!.!.!.!.",
"!.!.!.!.!.!.!.!.!.!.!.!.!.!.!.!.!.!.!.!.x G D D S =.*.H Q d.L.L.0.F *.) W 4.!.!.!.!.!.!.!.!.!.!.!.!.!.!.!.!.!.!.!.!.!.!.!.!.!.!.",
"!.!.!.!.!.!.!.!.!.!.!.!.!.!.!.!.!.!.!.!.!.Z x H ) *.*.I i.L.L.f.Q ) *.F ' r.i !.!.!.!.!.!.!.!.!.!.!.!.!.!.!.!.!.!.!.!.!.!.!.!.!.",
"!.!.!.!.!.!.!.!.!.!.!.!.!.!.!.!.!.!.!.!.!.!.x *.*.=.G 0.L.L.L.1.D *.*.C / f.>.!.!.!.!.!.!.!.!.!.!.!.!.!.!.!.!.!.!.!.!.!.!.!.!.!.",
"!.!.!.!.!.!.!.!.!.!.!.!.!.!.!.!.!.!.!.!.!.!.x *.*.=.Y d.L.L.t.T V D =.H 9.J.' !.!.!.!.!.!.!.!.!.!.!.!.!.!.!.!.!.!.!.!.!.!.!.!.!.",
"!.!.!.!.!.!.!.!.!.!.!.!.!.!.!.!.!.!.!.!.!.!.x =.*.*.U i.L.i.e > $ g =.L a.s.!.!.!.!.!.!.!.!.!.!.!.!.!.!.!.!.!.!.!.!.!.!.!.!.!.!.",
"!.!.!.!.!.!.!.!.!.!.!.!.!.!.!.!.!.!.!.!.!.!.g =.=.=.H T [ !.!.!.!.g -.%.K.6.!.!.!.!.!.!.!.!.!.!.!.!.!.!.!.!.!.!.!.!.!.!.!.!.!.!.",
"!.!.!.!.!.!.!.!.!.!.!.!.!.!.!.!.!.!.!.!.!.!.> x V h 3 !.!.!.!.!.!.h Y y.f.i !.!.!.!.!.!.!.!.!.!.!.!.!.!.!.!.!.!.!.!.!.!.!.!.!.!.",
"!.!.!.!.!.!.!.!.!.!.!.!.!.!.!.!.!.!.!.!.!.!.!.!.$ !.!.!.!.!.!.!.!.l 9.K.2.!.!.!.!.!.!.!.!.!.!.!.!.!.!.!.!.!.!.!.!.!.!.!.!.!.!.!.",
"!.!.!.!.!.!.!.!.!.!.!.!.!.!.!.!.!.!.!.!.!.!.!.!.!.!.!.!.!.!.!.!.!.E d.6.!.!.!.!.!.!.!.!.!.!.!.!.!.!.!.!.!.!.!.!.!.!.!.!.!.!.!.!.",
"!.!.!.!.!.!.!.!.!.!.!.!.!.!.!.!.!.!.!.!.!.!.!.!.!.!.!.!.!.!.!.!.!.!.>.!.!.!.!.!.!.!.!.!.!.!.!.!.!.!.!.!.!.!.!.!.!.!.!.!.!.!.!.!.",
"!.!.!.!.!.!.!.!.!.!.!.!.!.!.!.!.!.!.!.!.!.!.!.!.!.!.!.!.!.!.!.!.!.!.!.!.!.!.!.!.!.!.!.!.!.!.!.!.!.!.!.!.!.!.!.!.!.!.!.!.!.!.!.!.",
"!.!.!.!.!.!.!.!.!.!.!.!.!.!.!.!.!.!.!.!.!.!.!.!.!.!.!.!.!.!.!.!.!.!.!.!.!.!.!.!.!.!.!.!.!.!.!.!.!.!.!.!.!.!.!.!.!.!.!.!.!.!.!.!.",
"!.!.!.!.!.!.!.!.!.!.!.!.!.!.!.!.!.!.!.!.!.!.!.!.!.!.!.!.!.!.!.!.!.!.!.!.!.!.!.!.!.!.!.!.!.!.!.!.!.!.!.!.!.!.!.!.!.!.!.!.!.!.!.!.",
"!.!.!.!.!.!.!.!.!.!.!.!.!.!.!.!.!.!.!.!.!.!.!.!.!.!.!.!.!.!.!.!.!.!.!.!.!.!.!.!.!.!.!.!.!.!.!.!.!.!.!.!.!.!.!.!.!.!.!.!.!.!.!.!.",
"!.!.!.!.!.!.!.!.!.!.!.!.!.!.!.!.!.!.!.!.!.!.!.!.!.!.!.!.!.!.!.!.!.!.!.!.!.!.!.!.!.!.!.!.!.!.!.!.!.!.!.!.!.!.!.!.!.!.!.!.!.!.!.!.",
"!.!.!.!.!.!.!.!.!.!.!.!.!.!.!.!.!.!.!.!.!.!.!.!.!.!.!.!.!.!.!.!.!.!.!.!.!.!.!.!.!.!.!.!.!.!.!.!.!.!.!.!.!.!.!.!.!.!.!.!.!.!.!.!."
};
