/* XPM */
static char *_0210_f3729868ec453f0348aba47bf3cee84a653eaa834bf963b98e7aa28b7f4941ab[] = {
/* columns rows colors chars-per-pixel */
"64 64 169 2 ",
"   c #050504",
".  c #0C0C05",
"X  c #19140C",
"o  c #131416",
"O  c #250306",
"+  c #2B1C06",
"@  c #281B09",
"#  c #201E15",
"$  c #372408",
"%  c #23211C",
"&  c #392912",
"*  c #422C0B",
"=  c #452E06",
"-  c #4E3307",
";  c #4F350A",
":  c #5B3D0D",
">  c #543707",
",  c #452F11",
"<  c #493517",
"1  c #513710",
"2  c #603E07",
"3  c #443D2B",
"4  c #644306",
"5  c #65430C",
"6  c #6A460A",
"7  c #684506",
"8  c #714A04",
"9  c #744D0A",
"0  c #7A4F07",
"q  c #7D5105",
"w  c #7C530D",
"e  c #6B4B15",
"r  c #4D483E",
"t  c #544937",
"y  c #634B27",
"u  c #695535",
"i  c #6C593F",
"p  c #775E34",
"a  c #655F58",
"s  c #786444",
"d  c #6D6558",
"f  c #830A23",
"g  c #B41E39",
"h  c #B52335",
"j  c #835404",
"k  c #8A5B03",
"l  c #82550B",
"z  c #84590B",
"x  c #875A06",
"c  c #915F02",
"v  c #8D600A",
"b  c #956204",
"n  c #9B6503",
"m  c #9E6804",
"M  c #9A650A",
"N  c #8E6419",
"B  c #926113",
"V  c #986911",
"C  c #9A6817",
"Z  c #A36B03",
"A  c #A96E02",
"S  c #AD7102",
"D  c #A7730D",
"F  c #B37501",
"G  c #B67801",
"H  c #BB7B01",
"J  c #B97F0D",
"K  c #A97715",
"L  c #B57D12",
"P  c #B97D19",
"I  c #8D6723",
"U  c #926D2F",
"Y  c #87693B",
"T  c #A57A2C",
"R  c #A37524",
"E  c #A66C38",
"W  c #A57D3A",
"Q  c #A77D34",
"!  c #C17E00",
"~  c #A63948",
"^  c #8D5D5E",
"/  c #8D734E",
"(  c #95665E",
")  c #907850",
"_  c #BB7B4B",
"`  c #956260",
"'  c #807360",
"]  c #9C7B71",
"[  c #AD7269",
"{  c #BD7D6B",
"}  c #AA717E",
"|  c #B47779",
" . c #CE505E",
".. c #C07D5A",
"X. c #CE5762",
"o. c #C86267",
"O. c #B5801A",
"+. c #AF8439",
"@. c #C68200",
"#. c #C88300",
"$. c #C2830B",
"%. c #C0871A",
"&. c #C08C2B",
"*. c #CB973C",
"=. c #9C8157",
"-. c #A88447",
";. c #BE9241",
":. c #A4895E",
">. c #BA9458",
",. c #968B76",
"<. c #968568",
"1. c #B09262",
"2. c #BA9965",
"3. c #A69374",
"4. c #CA9C4F",
"5. c #C29D5E",
"6. c #CA9E55",
"7. c #C19D63",
"8. c #CB837C",
"9. c #C7A66D",
"0. c #D2AB6D",
"q. c #DFB36A",
"w. c #CBA970",
"e. c #DCB374",
"r. c #D4B37C",
"t. c #E2B56D",
"y. c #E9BE7B",
"u. c #E4BB7A",
"i. c #ECC17D",
"p. c #B87B8A",
"a. c #9C948D",
"s. c #B09D81",
"d. c #AEA08A",
"f. c #B2A38C",
"g. c #BBAC94",
"h. c #BEB49F",
"j. c #B8B2A8",
"k. c #CC8795",
"l. c #D78F9D",
"z. c #DC919D",
"x. c #E6969F",
"c. c #C6AF88",
"v. c #C9A490",
"b. c #D2A794",
"n. c #C9B69A",
"m. c #DD91A0",
"M. c #E496A5",
"N. c #ED9BAB",
"B. c #CFBCA1",
"V. c #F6A1B4",
"C. c #FCA4B6",
"Z. c #FDA5B9",
"A. c #DFC296",
"S. c #D7C09B",
"D. c #EDC380",
"F. c #F6C982",
"G. c #FDCE85",
"H. c #F1C581",
"J. c #FFD086",
"K. c #D7C2A3",
"L. c #E7D2B4",
"P. c #F4DFBE",
"I. c #CACBCF",
"U. c #F6E3C1",
"Y. c #FAE6C3",
"T. c #FFEAC7",
"R. c #FFE9C8",
"E. c #E3E3E4",
"W. c None",
/* pixels */
"W.W.W.W.W.W.W.W.W.W.W.W.W.W.W.W.W.W.W.W.W.W.W.W.W.W.W.W.W.W.W.W.W.W.W.W.W.W.W.W.W.W.W.W.W.W.W.W.W.W.W.W.W.W.W.W.W.W.W.W.W.W.W.W.",
"W.W.W.W.W.W.W.W.W.W.W.W.W.W.W.W.W.W.W.W.W.W.W.W.W.W.W.W.W.W.W.W.W.W.W.W.W.W.W.W.W.W.W.W.W.W.W.W.W.W.W.W.W.W.W.W.W.W.W.W.W.W.W.W.",
"W.W.W.W.W.W.W.W.W.W.W.W.W.W.W.W.W.W.W.W.W.W.W.W.W.W.W.W.W.W.W.W.W.W.W.W.W.W.W.W.W.W.W.W.W.W.W.W.W.W.W.W.W.W.W.W.W.W.W.W.W.W.W.W.",
"W.W.W.W.W.W.W.W.W.W.W.W.W.W.W.W.W.W.W.W.W.W.W.W.W.W.W.W.W.W.W.W.W.W.W.W.W.W.W.W.W.W.W.W.W.W.W.W.W.W.W.W.W.W.W.W.W.W.W.W.W.W.W.W.",
"W.W.W.W.W.W.W.W.W.W.W.W.W.W.W.W.W.W.W.W.W.W.W.W.W.W.W.W.W.W.W.W.W.W.W.W.W.W.W.W.W.W.W.W.W.W.W.W.W.W.W.W.W.W.W.W.W.W.W.W.W.W.W.W.",
"W.W.W.W.W.W.W.W.W.W.W.W.W.W.W.W.W.W.W.W.W.W.W.W.W.W.W.W.W.W.W.W.W.W.W.W.W.W.W.W.W.W.W.W.W.W.W.W.W.W.W.W.W.W.W.W.W.W.W.W.W.W.W.W.",
"W.W.W.W.W.W.W.W.W.W.W.W.W.W.W.W.W.W.W.W.W.W.W.W.W.W.W.W.W.W.W.W.W.W.W.W.W.W.W.W.W.W.W.W.W.W.W.W.W.W.W.W.W.W.W.W.W.W.W.W.W.W.W.W.",
"W.W.W.W.W.W.W.W.W.W.W.W.W.W.W.W.W.W.W.W.W.W.W.W.W.W.W.W.W.W.W.W.W.W.W.W.W.W.W.W.W.W.W.W.W.W.W.W.W.W.W.W.W.W.W.W.W.W.W.W.W.W.W.W.",
"W.W.W.W.W.W.W.W.W.W.W.W.W.W.W.W.W.W.W.W.W.W.W.W.W.W.W.W.W.W.W.W.W.W.W.W.W.W.W.W.W.W.W.W.W.W.W.W.W.W.W.W.W.W.W.W.W.W.W.W.W.W.W.W.",
"W.W.W.W.W.W.W.W.W.W.W.W.W.W.W.W.W.W.W.W.W.W.W.W.W.W.W.W.W.* - W.W.W.W.W.W.W.W.W.W.W.W.W.W.W.W.W.W.W.W.W.W.W.W.W.W.W.W.W.W.W.W.W.",
"W.W.W.W.W.W.W.W.W.W.W.W.W.W.W.W.W.W.W.W.W.W.W.W.W.W.W.W.5 l F l W.W.W.W.W.W.W.W.W.W.W.W.W.W.W.W.W.W.W.W.W.W.W.W.W.W.W.W.W.W.W.W.",
"W.W.W.W.W.W.W.W.W.W.W.W.W.W.W.W.W.W.W.W.W.W.W.W.W.W.W.W.0 j ! ! W.W.W.W.W.W.W.W.W.W.W.W.W.W.W.W.W.W.W.W.W.W.W.W.W.W.W.W.W.W.W.W.",
"W.W.W.W.W.W.W.W.W.W.W.W.W.W.W.W.W.W.W.W.W.W.W.W.W.W.W.W.c e G ! m W.W.W.W.W.W.W.W.W.W.W.W.W.W.W.W.W.W.W.W.W.W.W.W.W.W.W.W.W.W.W.",
"W.W.W.W.W.W.W.W.W.W.W.W.W.W.W.W.W.W.W.W.W.W.W.W.W.W.W.V Z 9 Z ! W.W.W.+ $ W.W.W.W.W.W.W.W.W.W.W.W.W.W.W.W.W.W.W.W.W.W.W.W.W.W.W.",
"W.W.W.W.W.W.W.W.W.W.W.W.W.W.W.W.W.W.W.W.W.W.W.W.W.V Z G Z k Z H W.+ 8 A S v W.W.W.W.W.W.W.W.W.W.W.W.W.W.W.W.W.W.W.W.W.W.W.W.W.W.",
"W.W.W.W.W.W.W.W.W.W.W.W.W.W.W.W.W.W.W.W.W.W.W.W.W.N F H ! A Z W.2 M #.#.#.H W.W.W.W.W.W.W.W.W.W.W.W.W.W.W.W.W.W.W.W.W.W.W.W.W.W.",
"W.W.W.W.W.W.W.W.W.W.W.W.W.W.W.W.W.W.W.W.W.W.W.W.a.3.F F ! ! F A H #.#.$.#.@.W.W.W.W.W.W.W.W.W.W.W.W.W.W.W.W.W.W.W.W.W.W.W.W.W.W.",
"W.W.W.W.W.W.W.W.W.W.W.W.W.W.W.W.W.W.W.W.W.W.W.W.I.c.F ! ! #.! #.#.! Z l b H W.W.W.W.W.W.W.W.W.W.W.W.W.W.W.W.W.W.W.W.W.W.W.W.W.W.",
"W.W.W.W.W.W.W.W.W.W.W.W.W.W.W.W.W.W.W.W.W.W.W.W.E.7.! #.#.#.! #.#.B ` k.| C W.W.W.W.W.W.W.W.W.W.W.W.W.W.W.W.W.W.W.W.W.W.W.W.W.W.",
"W.W.W.W.W.W.W.W.W.W.W.W.W.W.W.W.W.W.W.W.W.W.W.W.E.4.! #.#.#.#.#.A [ Z.Z.Z...z W.W.W.W.W.W.W.W.W.W.W.W.W.W.W.W.W.W.W.W.W.W.W.W.W.",
"W.W.W.W.W.W.W.W.W.W.W.W.W.W.W.W.W.W.W.W.W.  W.W.j.%.! ! #.! ! ! E V.Z.Z.Z.x.W.W.W.W.W.W.W.W.W.W.W.W.W.W.W.W.W.W.W.W.W.W.W.W.W.W.",
"W.W.W.W.W.W.W.W.W.W.W.W.W.W.W.W.W.W.W.W.W.W.W.o <.! #.H ! #.#.H o.Z.Z.Z.C.N.W.W.W.W.W.W.W.W.W.W.W.W.W.W.W.W.W.W.W.W.W.W.W.W.W.W.",
"W.W.W.W.W.W.W.W.W.W.W.W.W.W.W.W.W.W.W.W.W.% d o I H Z F #.#.#.P x.Z.Z.Z.Z.M.W.W.W.W.W.W.W.W.W.W.W.W.W.W.W.W.W.W.W.W.W.W.W.W.W.W.",
"W.W.W.W.W.W.W.W.W.W.W.W.W.W.W.W.W.W.W.W.W.g.L.d - j F ! H ! #.P N.z.N.Z.Z.k.W.W.W.W.W.W.W.W.W.W.W.W.W.W.W.W.W.W.W.W.W.W.W.W.W.W.",
"W.W.W.W.W.W.W.W.W.W.W.W.W.W.W.W.W.W.W.W.W.K.Y.3.k F A M A ! #.H [ ^ N.C.V.} W.W.W.W.W.W.W.W.W.W.W.W.W.W.W.W.W.W.W.W.W.W.W.W.W.W.",
"W.W.W.W.W.W.W.W.W.W.W.W.W.W.W.W.W.W.W.W.W.n.U.3.z M A H #.#.#.@.B 3.C.C.x.W.W.W.W.W.W.W.W.W.W.W.W.W.W.W.W.W.W.W.W.W.W.W.W.W.W.W.",
"W.W.W.W.W.W.W.W.W.W.W.W.W.W.W.W.W.W.W.W.W.,.U.K.D #.#.! #.#.#.! ..V.V.V.p.W.W.W.W.W.W.W.W.W.W.W.W.W.W.W.W.W.W.W.W.W.W.W.W.W.W.W.",
"W.W.W.W.W.W.W.W.W.W.W.W.W.W.W.W.W.W.W.W.W.W.f.d.< k Q 5.O.! #.! ..V.C.z.W.W.W.W.W.W.W.W.W.W.W.W.W.W.W.W.W.W.W.W.W.W.W.W.W.W.W.W.",
"W.W.W.W.W.W.W.W.W.W.W.W.W.W.W.W.W.W.w W.W.W.W.r   X n.T.S.O.#.H { V.z.W.W.W.W.W.W.W.W.W.W.W.W.W.W.W.W.W.W.W.W.W.W.W.W.W.W.W.W.W.",
"W.W.W.W.W.W.W.W.W.W.W.W.W.W.W.W.W.6 l b W.W.= u # . B.T.T.w.! S ( p.W.W.W.W.W.W.W.W.W.W.W.W.W.W.W.W.W.W.W.W.W.W.W.W.W.W.W.W.W.W.",
"W.W.W.W.W.W.W.W.W.W.W.W.W.W.W.W.W.b Z Z 6 n G D 3 O v.T.R.B.#.n W.W.W.W.W.W.W.W.W.W.W.W.W.W.W.W.W.W.W.W.W.W.W.W.W.W.W.W.W.W.W.W.",
"W.W.W.W.W.W.W.W.W.W.W.W.W.W.W.W.W.M #.! H #.#.@.p f 8.T.T.A.H 0 W.W.W.W.W.W.W.W.W.W.W.W.W.W.W.W.W.W.W.W.W.W.W.W.W.W.W.W.W.W.W.W.",
"W.W.W.W.W.W.W.W.W.W.W.W.W.W.W.W.W.x O.#.#.#.#.#.R g o.Y.T.r.A W.W.W.W.W.W.W.W.W.W.W.W.W.W.W.W.W.W.W.W.W.W.W.W.W.W.W.W.W.W.W.W.W.",
"W.W.W.W.W.W.W.W.W.W.W.W.W.W.W.W.W.W.A H Z b b n V h X.U.Y.-.7 W.W.W.W.W.W.W.W.W.W.W.W.W.W.W.W.W.W.W.W.W.W.W.W.W.W.W.W.W.W.W.W.W.",
"W.W.W.W.W.W.W.W.W.W.W.W.W.W.W.W.W.W.m G W.W.W.W.W.~ X.Y.n.e k W.W.W.W.W.W.W.W.W.W.W.W.W.W.W.W.W.W.W.W.W.W.W.W.W.W.W.W.W.W.W.W.W.",
"W.W.W.W.W.W.W.W.W.W.W.W.W.W.W.W.W.W.9 W.W.W.W.W.W.] b.s.y Z @.j W.W.W.W.W.W.W.W.W.W.W.W.W.W.W.W.W.W.W.W.W.W.W.W.W.W.W.W.W.W.W.W.",
"W.W.W.W.W.W.W.W.W.W.W.W.W.W.W.W.W.W.W.W.W.: W.W.W.W.j.' c #.#.Z W.W.W.W.W.W.W.W.W.W.& & W.W.W.W.W.W.W.W.W.W.W.W.W.W.W.W.W.W.W.W.",
"W.W.W.W.W.W.W.W.W.W.W.W.W.W.W.W.W.W.W.W.W.m W.W.W.W.a C @.@.#.H 4 W.W.W.W.W.W.W.W.& , W.W.W.W.W.W.W.W.W.W.W.W.W.W.W.W.W.W.W.W.W.",
"W.W.W.W.W.W.W.W.W.W.W.W.W.W.W.W.W.W.W.W.; b Z W.W.W.q H #.@.@.@.c W.W.W.W.W.W.W.W.1 W.W.W.W.W.W.W.W.W.W.W.W.W.W.W.W.W.W.W.W.W.W.",
"W.W.W.W.W.W.W.W.W.W.W.W.W.W.W.W.W.W.W.W.x @.H W.7 b @.#.@.@.! @.F W.W.W.W.W.W.W.: W.W.W.W.W.W.W.W.W.W.W.W.W.W.W.W.W.W.W.W.W.W.W.",
"W.W.W.W.W.W.W.W.W.W.W.W.W.W.W.W.W.W.W.W.k ! @.S ! #.@.@.#.S F @.@.b W.W.W.W.W.W.6 W.W.W.W.W.W.W.W.W.W.W.W.W.W.W.W.W.W.W.W.W.W.W.",
"W.W.W.W.W.W.W.W.W.W.W.W.W.W.W.W.W.W.W.W.m H #.#.@.#.#.@.n -.$.@.#.H w * W.W.W.9 W.W.W.W.W.W.W.W.W.W.W.W.W.W.W.W.W.W.W.W.W.W.W.W.",
"W.W.W.W.W.W.W.W.W.W.W.W.W.W.W.W.W.W.W.W.W.9 F F H G m 8 < w.*.@.#.@.H A - W.W.w W.W.W.W.W.W.W.W.W.W.W.W.W.W.W.W.W.W.W.W.W.W.W.W.",
"W.W.W.W.W.W.W.W.W.W.W.W.W.W.W.W.W.W.W.W.W.W.> W.> $ @ W.W.1.t.J #.#.#.#.H - w x S l W.W.W.W.W.W.W.W.W.W.W.W.W.W.W.W.W.W.W.W.W.W.",
"W.W.W.W.W.W.W.W.W.W.W.W.W.W.W.W.W.W.W.W.W.W.W.W.W.W.W.W.@ i D.4.H #.@.#.#.S - n #.G W.W.W.W.W.W.W.W.W.W.W.W.W.W.W.W.W.W.W.W.W.W.",
"W.W.W.W.W.W.W.W.W.W.W.W.W.W.W.W.W.W.W.W.W.W.W.W.W.W.W.4 n w 7.F.+.F #.@.@.#.k b #.@.S W.W.W.W.W.W.W.W.W.W.W.W.W.W.W.W.W.W.W.W.W.",
"W.W.W.W.W.W.W.W.W.W.W.W.W.W.W.W.W.W.W.W.W.W.W.W.W.W.W.k #.H +.G.i.W G #.@.#.F c @.@.H z W.W.W.W.W.W.W.W.W.W.W.W.W.W.W.W.W.W.W.W.",
"W.W.W.W.W.W.W.W.W.W.W.W.W.W.W.W.W.W.W.W.W.W.W.W.W.W.t z #.#.K y.J.i.Q H #.@.@.b H G #.H W.W.W.W.W.W.W.W.W.W.W.W.W.W.W.W.W.W.W.W.",
"W.W.W.W.W.W.W.W.W.W.W.W.W.W.W.W.W.W.W.W.W.W.W.W.W.W.1.U ! #.F 5.J.G.y.T ! @.#.A S A G b W.W.W.W.W.W.W.W.W.W.W.W.W.W.W.W.W.W.W.W.",
"W.W.W.W.W.W.W.W.W.W.W.W.W.W.W.W.W.W.W.W.W.W.W.W.W.s w.Y F #.! T H.J.J.e.K #.#.@.! b Z W.W.W.W.W.W.W.W.W.W.W.W.W.W.W.W.W.W.W.W.W.",
"W.W.W.W.W.W.W.W.W.W.W.W.W.W.W.W.W.W.W.W.W.W.W.W.W.) H.W A #.@.S >.J.G.J.6.H #.@.#.c W.W.W.W.W.W.W.W.W.W.W.W.W.W.W.W.W.W.W.W.W.W.",
"W.W.W.W.W.W.W.W.W.W.W.W.W.W.W.W.W.W.W.W.W.W.W.W.W.) F.6.! #.A Z N 0.J.J.y.L @.@.#.b W.W.W.W.W.W.W.W.W.W.W.W.W.W.W.W.W.W.W.W.W.W.",
"W.W.W.W.W.W.W.W.W.W.W.W.W.W.W.W.W.W.W.W.W.W.W.W.W.W.y.t.H #.k $ ; u e.G.e.L #.#.#.n W.W.W.W.W.W.W.W.W.W.W.W.W.W.W.W.W.W.W.W.W.W.",
"W.W.W.W.W.W.W.W.W.W.W.W.W.W.W.W.W.W.W.W.W.W.W.W.W.W.2.F.&.@.k W.W.W.W.) I H #.#.#.k W.W.W.W.W.W.W.W.W.W.W.W.W.W.W.W.W.W.W.W.W.W.",
"W.W.W.W.W.W.W.W.W.W.W.W.W.W.W.W.W.W.W.W.W.W.W.W.W.W.s i.t.O.k W.W.W.W.W.W.9 k A b ; W.W.W.W.W.W.W.W.W.W.W.W.W.W.W.W.W.W.W.W.W.W.",
"W.W.W.W.W.W.W.W.W.W.W.W.W.W.W.W.W.W.W.W.W.W.W.W.W.W.W.1.F.6.j W.W.W.W.W.W.W.W.+ W.W.W.W.W.W.W.W.W.W.W.W.W.W.W.W.W.W.W.W.W.W.W.W.",
"W.W.W.W.W.W.W.W.W.W.W.W.W.W.W.W.W.W.W.W.W.W.W.W.W.W.W.W.2.u.Y W.W.W.W.W.W.W.W.W.W.W.W.W.W.W.W.W.W.W.W.W.W.W.W.W.W.W.W.W.W.W.W.W.",
"W.W.W.W.W.W.W.W.W.W.W.W.W.W.W.W.W.W.W.W.W.W.W.W.W.W.W.W.W.:.W.W.W.W.W.W.W.W.W.W.W.W.W.W.W.W.W.W.W.W.W.W.W.W.W.W.W.W.W.W.W.W.W.W.",
"W.W.W.W.W.W.W.W.W.W.W.W.W.W.W.W.W.W.W.W.W.W.W.W.W.W.W.W.W.W.W.W.W.W.W.W.W.W.W.W.W.W.W.W.W.W.W.W.W.W.W.W.W.W.W.W.W.W.W.W.W.W.W.W.",
"W.W.W.W.W.W.W.W.W.W.W.W.W.W.W.W.W.W.W.W.W.W.W.W.W.W.W.W.W.W.W.W.W.W.W.W.W.W.W.W.W.W.W.W.W.W.W.W.W.W.W.W.W.W.W.W.W.W.W.W.W.W.W.W.",
"W.W.W.W.W.W.W.W.W.W.W.W.W.W.W.W.W.W.W.W.W.W.W.W.W.W.W.W.W.W.W.W.W.W.W.W.W.W.W.W.W.W.W.W.W.W.W.W.W.W.W.W.W.W.W.W.W.W.W.W.W.W.W.W.",
"W.W.W.W.W.W.W.W.W.W.W.W.W.W.W.W.W.W.W.W.W.W.W.W.W.W.W.W.W.W.W.W.W.W.W.W.W.W.W.W.W.W.W.W.W.W.W.W.W.W.W.W.W.W.W.W.W.W.W.W.W.W.W.W.",
"W.W.W.W.W.W.W.W.W.W.W.W.W.W.W.W.W.W.W.W.W.W.W.W.W.W.W.W.W.W.W.W.W.W.W.W.W.W.W.W.W.W.W.W.W.W.W.W.W.W.W.W.W.W.W.W.W.W.W.W.W.W.W.W.",
"W.W.W.W.W.W.W.W.W.W.W.W.W.W.W.W.W.W.W.W.W.W.W.W.W.W.W.W.W.W.W.W.W.W.W.W.W.W.W.W.W.W.W.W.W.W.W.W.W.W.W.W.W.W.W.W.W.W.W.W.W.W.W.W."
};
