/* XPM */
static char *_9201_04fe39377ea0ae63b27852ed0b40481ed0f608dc74fba8933735c7a929cb3a47[] = {
/* columns rows colors chars-per-pixel */
"64 64 172 2 ",
"   c #4D3A1A",
".  c #513E1B",
"X  c #55421B",
"o  c #59451B",
"O  c #5E491B",
"+  c #624C1B",
"@  c #6B551C",
"#  c #6E591D",
"$  c #65511E",
"%  c #745D1D",
"&  c #75601F",
"*  c #7A641E",
"=  c #7E681C",
"-  c #594725",
";  c #5E4B2A",
":  c #564425",
">  c #6A5622",
",  c #6D5926",
"<  c #6E5A2A",
"1  c #695528",
"2  c #725D22",
"3  c #735E2A",
"4  c #6F5B35",
"5  c #67563A",
"6  c #6F5C38",
"7  c #725E32",
"8  c #7B6523",
"9  c #7D682E",
"0  c #766124",
"q  c #746032",
"w  c #7D6935",
"e  c #74613C",
"r  c #7A663B",
"t  c #7C683C",
"y  c #7A6634",
"u  c #7B6642",
"i  c #7E6944",
"p  c #7E6B4A",
"a  c #72634A",
"s  c #7D6F57",
"d  c #80671D",
"f  c #836C1E",
"g  c #87701F",
"h  c #8C741D",
"j  c #947B1B",
"k  c #997F1D",
"l  c #90751D",
"z  c #846D23",
"x  c #806A29",
"c  c #8C7422",
"v  c #8A742E",
"b  c #8F782C",
"n  c #957C23",
"m  c #987F20",
"M  c #927A2C",
"N  c #987E29",
"B  c #836F3A",
"V  c #816D35",
"C  c #877030",
"Z  c #8F7733",
"A  c #84703E",
"S  c #8D773D",
"D  c #907B31",
"F  c #927B39",
"G  c #826C43",
"H  c #866E4B",
"J  c #886F4D",
"K  c #85714D",
"L  c #89714E",
"P  c #897543",
"I  c #816F51",
"U  c #867251",
"Y  c #8B7352",
"T  c #8E7955",
"R  c #8E7E59",
"E  c #82755F",
"W  c #907857",
"Q  c #937C5C",
"!  c #967F60",
"~  c #9D831D",
"^  c #A1861E",
"/  c #A58A1E",
"(  c #AA8D1F",
")  c #AE911F",
"_  c #B2951F",
"`  c #B6981F",
"'  c #BA9A1F",
"]  c #9B8222",
"[  c #A18622",
"{  c #A68A21",
"}  c #AA8D21",
"|  c #A48A2D",
" . c #AE9121",
".. c #AE922E",
"X. c #B39521",
"o. c #B79820",
"O. c #BC9C21",
"+. c #B39729",
"@. c #BB9D2A",
"#. c #A48C33",
"$. c #A18A3D",
"%. c #A99035",
"&. c #AF963A",
"*. c #B39831",
"=. c #B39A3D",
"-. c #BFA027",
";. c #BCA035",
":. c #D6B21F",
">. c #D9B41F",
",. c #C3A322",
"<. c #C8A723",
"1. c #CCAA23",
"2. c #C4A429",
"3. c #C9A82B",
"4. c #D1AE22",
"5. c #D5B122",
"6. c #DAB522",
"7. c #DEB821",
"8. c #E4BD20",
"9. c #E7C020",
"0. c #E9C120",
"q. c #958144",
"w. c #9B8849",
"e. c #9A8544",
"r. c #93835C",
"t. c #A18D4A",
"y. c #A79145",
"u. c #A99248",
"i. c #B09843",
"p. c #B59C4A",
"a. c #AF9A58",
"s. c #A7925A",
"d. c #BEA447",
"f. c #BEA548",
"g. c #B7A25C",
"h. c #8D816C",
"j. c #978363",
"k. c #998363",
"l. c #978864",
"z. c #9C8668",
"x. c #9E896C",
"c. c #998B67",
"v. c #988E7C",
"b. c #9D927D",
"n. c #A89565",
"m. c #B49F60",
"M. c #A49673",
"N. c #A99973",
"B. c #A69978",
"V. c #A89C7B",
"C. c #B9A669",
"Z. c #B8A464",
"A. c #9C9180",
"S. c #A59883",
"D. c #AA9E8B",
"F. c #ACA08E",
"G. c #B0A289",
"H. c #AEA394",
"J. c #B2AA9E",
"K. c #B4ADA1",
"L. c #B7B0A6",
"P. c #BBB3A6",
"I. c #BAB4AC",
"U. c #C0BAAE",
"Y. c #C3BDB4",
"T. c #CAC5BD",
"R. c #CCC7C1",
"E. c #CEC9C3",
"W. c #D0CCC7",
"Q. c #D2CEC9",
"!. c #D5D1CD",
"~. c None",
/* pixels */
"~.~.~.~.~.~.~.~.~.~.~.~.~.~.~.~.~.~.~.~.~.~.~.~.~.~.~.~.~.~.~.~.~.~.~.~.~.~.~.~.~.~.~.~.~.~.~.~.~.~.~.~.~.~.~.~.~.~.~.~.~.~.~.~.",
"~.~.~.~.~.~.~.~.~.~.~.~.~.~.~.~.~.~.~.~.~.~.~.~.~.~.~.~.~.~.~.~.~.~.~.~.~.~.~.~.~.~.~.~.~.~.~.~.~.~.~.~.~.~.~.~.~.~.~.~.~.~.~.~.",
"~.~.~.~.~.~.~.~.~.~.~.~.~.~.~.~.~.~.~.~.~.~.~.~.~.~.~.~.~.~.~.~.~.~.~.~.~.~.~.~.~.~.~.~.~.~.~.~.~.~.~.~.~.~.~.~.~.~.~.~.~.~.~.~.",
"~.~.~.~.~.~.~.~.~.~.~.~.~.~.~.~.~.~.~.~.~.~.~.~.~.~.~.~.~.~.~.~.~.~.~.~.~.~.~.~.~.~.~.~.~.~.~.~.~.~.~.~.~.~.~.~.~.~.~.~.~.~.~.~.",
"~.~.~.~.~.~.~.~.~.~.~.~.~.~.~.~.~.~.~.~.~.~.~.~.~.~.~.~.~.~.~.~.~.~.~.~.~.~.~.~.~.~.~.~.~.~.~.~.~.~.~.~.~.~.~.~.~.~.~.~.~.~.~.~.",
"~.~.~.~.~.~.~.~.~.~.~.~.~.~.~.~.~.~.~.~.~.~.~.~.~.~.~.~.~.~.~.~.~.~.~.~.~.~.~.~.~.~.~.~.~.~.~.~.~.~.~.~.~.~.~.~.~.~.~.~.~.~.~.~.",
"~.~.~.~.~.~.~.~.~.~.~.~.~.~.~.~.~.~.~.~.~.~.~.~.~.~.~.~.~.~.~.~.~.~.~.~.~.~.~.~.~.~.~.~.~.~.~.~.~.~.~.~.~.~.~.~.~.~.~.~.~.~.~.~.",
"~.~.~.~.~.~.~.~.~.~.~.~.~.~.~.~.~.~.~.~.~.~.~.~.~.~.~.~.~.~.~.~.~.~.~.~.~.~.~.~.~.~.~.~.~.~.~.~.~.~.~.~.~.~.~.~.~.~.~.~.~.~.~.~.",
"~.~.~.~.~.~.~.~.~.~.~.~.~.~.~.~.~.~.~.~.~.~.~.~.~.~.~.~.~.~.~.~.~.~.~.~.~.~.~.~.~.~.~.~.~.~.~.~.~.~.~.~.~.~.~.~.~.~.~.~.~.~.~.~.",
"~.~.~.~.~.~.~.~.~.~.~.~.~.~.~.~.~.~.~.~.~.~.~.~.~.~.~.~.~.~.~.~.~.~.~.~.~.~.~.~.~.~.~.~.~.~.~.~.~.~.~.~.~.~.~.~.~.~.~.~.~.~.~.~.",
"~.~.~.~.~.~.~.~.~.~.~.~.~.~.~.~.~.~.~.~.~.~.~.~.~.~.~.x.z.r.r.Q Q Q k.! k.~.~.~.~.~.~.~.~.~.~.~.~.~.~.~.~.~.~.~.~.~.~.~.~.~.~.~.",
"~.~.~.~.~.~.~.~.~.~.~.~.~.~.~.~.~.~.~.~.~.~.~.~.z.Q Y Y Y J K K J Y Y J Y Y Q Q z.~.~.~.~.~.~.~.~.~.~.~.~.~.~.~.~.~.~.~.~.~.~.~.",
"~.~.~.~.~.~.~.~.~.~.~.~.~.~.~.~.~.~.~.~.~.~.Q W Y J J J T K U U L Y Y Y H J Y Y Y W k.~.~.~.~.~.~.~.~.~.~.~.~.~.~.~.~.~.~.~.~.~.",
"~.~.~.~.~.~.~.~.~.~.~.~.~.~.~.~.~.~.~.~.k.Y Y Y Y J J Y U p i i 6 u u G H Y Y Y J Y Y Q z.~.~.~.~.~.~.~.~.~.~.~.~.~.~.~.~.~.~.~.",
"~.~.~.~.~.~.~.~.~.~.~.~.~.~.~.~.~.~.~.Q Y L J Y Y G e 7 , 0 = = d & = 8 < 6 u K Y Y Y J Y j.~.~.~.~.~.~.~.~.~.~.~.~.~.~.~.~.~.~.",
"~.~.~.~.~.~.~.~.~.~.~.~.~.~.~.~.~.x.W J J Y Y I 7 , 2 = h ~ ( ) ^ j ( { h = 2 < r Y J Y Y Y Q ~.~.~.~.~.~.~.~.~.~.~.~.~.~.~.~.~.",
"~.~.~.~.~.~.~.~.~.~.~.~.~.~.~.~.x.W Y L J Y i , = h ~ h ~ ~ / ) ~ ~ / _ ~ j ] b * q L L Y J J r.~.~.~.~.~.~.~.~.~.~.~.~.~.~.~.~.",
"~.~.~.~.~.~.~.~.~.~.~.~.~.~.~.~.T Y Y J L 6 2 j ^ ~ ~ h h ~ / ) ~ ~ ^ ) ~ ~ ] } { h 2 G L J J L Q ~.~.~.~.~.~.~.~.~.~.~.~.~.~.~.",
"~.~.~.~.~.~.~.~.~.~.~.~.~.~.~.W J Y Y I 6 # c _ / ~ ~ h ~ ~ X.a.~ ~ / ) ~ ~ {  ._ ) j 2 G L H L U k.~.~.~.~.~.~.~.~.~.~.~.~.~.~.",
"~.~.~.~.~.~.~.~.~.~.~.~.~.~.k.J J Y Y u # z ~  .^ ~ j h j ~ %.r.M ~ ) X.~ ~ {  .` _ ` k 3 H L L H W ~.~.~.~.~.~.~.~.~.~.~.~.~.~.",
"~.~.~.~.~.~.~.~.~.~.~.~.~.~.W H L U p 2 h ~ [ ) ~ ~ ~ j ~ | $./ %.#.(  .[ ~  . . ./  .` l q L L u L Q ~.~.~.~.~.~.~.~.~.~.~.~.~.",
"~.~.~.~.~.~.~.~.~.~.~.~.~.~.W H L U q h / ^ [ ) / ~ ~ ~ ~ t.#.'  .y.+.) ^ ]  .+.( { } ) ( * i L i H W ~.~.~.~.~.~.~.~.~.~.~.~.~.",
"~.~.~.~.~.~.~.~.~.~.~.~.~.Q Y H L G * ^ ) [ { _ ~ ~ ~ ~ %.q. .' ) | i. .[ {  .X.{ } } / X.j 7 P u J W ~.~.~.~.~.~.~.~.~.~.~.~.~.",
"~.~.~.~.~.~.~.~.~.~.~.~.~.W J H U 6 = ` o.{ { ` / ~ c S N.A v F F S N.q.C ] +.o.{  .{ { X.) 8 H u H Y ~.~.~.~.~.~.~.~.~.~.~.~.~.",
"~.~.~.~.~.~.~.~.~.~.~.~.~.J Y H I < c O.O.} } ' / ^ v K.H.S.J.A.D.P.F.S.b.c o.+.{  .{ { X.O.g G G J Y ~.~.~.~.~.~.~.~.~.~.~.~.~.",
"~.~.~.~.~.~.~.~.~.~.~.~.~.J L H H , k O.O.( X.O.( / F T.E.Q.I.5 a Y.T.E.P.b o.) ( } / { X.O.j r i L Y ~.~.~.~.~.~.~.~.~.~.~.~.~.",
"~.~.~.~.~.~.~.~.~.~.~.~.~.J H H H , ] ,.O.X.O.' ( ^ e.R.!.Q.h.X : v.!.!.U.D _  .) } { } o.O.~ t G H Y ~.~.~.~.~.~.~.~.~.~.~.~.~.",
"~.~.~.~.~.~.~.~.~.~.~.~.~.H H H U 3 k ,.O.) O.,.( ~ w.T.Q.!.I.s E E.!.!.Y.D X. .}  .^ } +.,.^ w H J Y ~.~.~.~.~.~.~.~.~.~.~.~.~.",
"~.~.~.~.~.~.~.~.~.~.~.~.~.H J H Y r #.,.O.O.,.' / ~ q.I.T.T.!.L.J.W.Q.R.K.v _ X. .( /  .+.,.[ r H J J ~.~.~.~.~.~.~.~.~.~.~.~.~.",
"~.~.~.~.~.~.~.~.~.~.~.~.~.J J G J I Z.,.,.<.,.' / ~ b Y r.r.M.B.N.b.c.r.K c _ X. . .{ X.X.O.] B J Y Y ~.~.~.~.~.~.~.~.~.~.~.~.~.",
"~.~.~.~.~.~.~.~.~.~.~.~.~.~.H H Y p s.2.,.,.<.@.[ ~ [ ~ j ~ ~ ) ` / ~ )  .[ O.o.} X.{  .+.O.k H J Y L ~.~.~.~.~.~.~.~.~.~.~.~.~.",
"~.~.~.~.~.~.~.~.~.~.~.~.~.~.H H Y p n.2.,.1.<.@.) ~ / ) ( ) ) -.1.'  .-.-.@.,.o.} X.{ X.o.o.n L L L Y ~.~.~.~.~.~.~.~.~.~.~.~.~.",
"~.~.~.~.~.~.~.~.~.~.~.~.~.~.J H J p N 1.-.<.<.@.} ^ / j % f ( O.1.O.X.o.-.X.,.o.) X.( [ d j z H Y Y J ~.~.~.~.~.~.~.~.~.~.~.~.~.",
"~.~.~.~.~.~.~.~.~.~.~.~.~.~.J H J J l k # d o.@.) / k + . o % } <.,.X.( z 2 } O._ _ k @ . O 1 Y J Y J ~.~.~.~.~.~.~.~.~.~.~.~.~.",
"~.~.~.~.~.~.~.~.~.~.~.~.~.~.L J J Y @ . .   > | X.k +       . @ X.1.~ + X . O j ` / + . . . ; Y L L L ~.~.~.~.~.~.~.~.~.~.~.~.~.",
"~.~.~.~.~.~.~.~.~.~.~.~.~.~.L J J Y -   . . o @ h @     o o     & [ O     X X o f %   X + O ; I Y L L ~.~.~.~.~.~.~.~.~.~.~.~.~.",
"~.~.~.~.~.~.~.~.~.~.~.~.~.~.Y Y J Y ; - m k > . .     @ ^ k @ o + O . . d } % .   .   % } n 4 Y Y J Y ~.~.~.~.~.~.~.~.~.~.~.~.~.",
"~.~.~.~.~.~.~.~.~.~.~.~.~.~.Y Y Y W 7 k O.4.X.z o o @ ^ _ ` ) l @ . o c O.6.,.c O X @ ( ,.} y Y L J ~.~.~.~.~.~.~.~.~.~.~.~.~.~.",
"~.~.~.~.~.~.~.~.~.~.~.~.~.~.~.L Y Y B / O.5.<.-./ ^ } ) _ X.` ` ) % j O.O.4.1.O.( [ &.;.-.[ y Y Y J ~.~.~.~.~.~.~.~.~.~.~.~.~.~.",
"~.~.~.~.~.~.~.~.~.~.~.~.~.~.~.Y J Y B ^ O.5.,.3.O.O._ ) ) X.` o.o.O.1.,.O.1.4.,.@.Z.B.N.f.^ i Y L J ~.~.~.~.~.~.~.~.~.~.~.~.~.~.",
"~.~.~.~.~.~.~.~.~.~.~.~.~.~.~.J J Y G ~ -.6.,.3.O.O.X._ _ X.O.' O.,.6.4.O.1.7.<.+.G.D.D.C.k u Y L L ~.~.~.~.~.~.~.~.~.~.~.~.~.~.",
"~.~.~.~.~.~.~.~.~.~.~.~.~.~.~.J J Y K j O.>.,.2.,.O.X.X._ _ O.' O.,.8.>.O.,.>.>.} z.H.D.p.j u Y L L ~.~.~.~.~.~.~.~.~.~.~.~.~.~.",
"~.~.~.~.~.~.~.~.~.~.~.~.~.~.~.J J L L b ,.6.<.2.,.O.' _ _ _ ' O.O.<.8.4.O.,.>.>.O.N S $.O.c G Y L Y ~.~.~.~.~.~.~.~.~.~.~.~.~.~.",
"~.~.~.~.~.~.~.~.~.~.~.~.~.~.~.J J L K T f.>.1.,.2.O.O._ _ ` O.O.O.,.8.6.,.,.8.7.,.,.` O.-.c I Y J Y ~.~.~.~.~.~.~.~.~.~.~.~.~.~.",
"~.~.~.~.~.~.~.~.~.~.~.~.~.~.~.J K L Y p p.5.1.,.3.,.O.` X.` ' O.,.1.8.>.,.<.7.7.<.,.O.,.O.c I Y L J ~.~.~.~.~.~.~.~.~.~.~.~.~.~.",
"~.~.~.~.~.~.~.~.~.~.~.~.~.~.~.H J Y U K g.6.1.-.3.,.O.O.' O.' ,.,.4.8.:.,.1.0.7.4.,.O.O.' x Y J Y J ~.~.~.~.~.~.~.~.~.~.~.~.~.~.",
"~.~.~.~.~.~.~.~.~.~.~.~.~.~.~.H J L T w ..4.1.O.3.,.O.' O.` ' ,.,.4.8.4.,.1.0.8.4.3.,.O.' x Y J Y Y ~.~.~.~.~.~.~.~.~.~.~.~.~.~.",
"~.~.~.~.~.~.~.~.~.~.~.~.~.~.~.~.L H U w ) 4.:.,.1.1.O.O.` O.' ,.,.>.0.4.,.<.0.0.6.<.,.,.` x Y J Y ~.~.~.~.~.~.~.~.~.~.~.~.~.~.~.",
"~.~.~.~.~.~.~.~.~.~.~.~.~.~.~.~.J J Y B ( 5.>.,.4.1.,.O.` O.O.,.,.7.8.4.,.<.8.0.8.1.,.,._ w Y H Y ~.~.~.~.~.~.~.~.~.~.~.~.~.~.~.",
"~.~.~.~.~.~.~.~.~.~.~.~.~.~.~.~.Y J Y G ^ 5.9.,.,.1.,.,.O.' ,.,.<.7.8.4.,.,.7.0.7.1.,.,.( w Y L J ~.~.~.~.~.~.~.~.~.~.~.~.~.~.~.",
"~.~.~.~.~.~.~.~.~.~.~.~.~.~.~.~.L H U K ~ 6.0.1.,.1.,.O.' ,.,.3.1.8.0.4.,.,.5.0.7.3.,.<./ r Y Y J ~.~.~.~.~.~.~.~.~.~.~.~.~.~.~.",
"~.~.~.~.~.~.~.~.~.~.~.~.~.~.~.~.Y H L K ] 7.9.:.,.1.,.,.' ' ,.1.1.8.0.4.,.<.6.0.6.1.,.<.^ t Y U G ~.~.~.~.~.~.~.~.~.~.~.~.~.~.~.",
"~.~.~.~.~.~.~.~.~.~.~.~.~.~.~.~.H L Y U n 8.0.7.,.1.,.,.' ,.,.1.4.8.8.1.,.<.6.9.7.3.,.1.~ i H K J ~.~.~.~.~.~.~.~.~.~.~.~.~.~.~.",
"~.~.~.~.~.~.~.~.~.~.~.~.~.~.~.~.L L J Y M ~.~.~.~.~.~.~.~.~.~.~.~.~.~.~.~.~.~.~.~.~.~.~.~.K H H Y ~.~.~.~.~.~.~.~.~.~.~.~.~.~.~.",
"~.~.~.~.~.~.~.~.~.~.~.~.~.~.~.~.~.~.~.~.~.~.~.~.~.~.~.~.~.~.~.~.~.~.~.~.~.~.~.~.~.~.~.~.~.~.~.~.~.~.~.~.~.~.~.~.~.~.~.~.~.~.~.~.",
"~.~.~.~.~.~.~.~.~.~.~.~.~.~.~.~.~.~.~.~.~.~.~.~.~.~.~.~.~.~.~.~.~.~.~.~.~.~.~.~.~.~.~.~.~.~.~.~.~.~.~.~.~.~.~.~.~.~.~.~.~.~.~.~.",
"~.~.~.~.~.~.~.~.~.~.~.~.~.~.~.~.~.~.~.~.~.~.~.~.~.~.~.~.~.~.~.~.~.~.~.~.~.~.~.~.~.~.~.~.~.~.~.~.~.~.~.~.~.~.~.~.~.~.~.~.~.~.~.~.",
"~.~.~.~.~.~.~.~.~.~.~.~.~.~.~.~.~.~.~.~.~.~.~.~.~.~.~.~.~.~.~.~.~.~.~.~.~.~.~.~.~.~.~.~.~.~.~.~.~.~.~.~.~.~.~.~.~.~.~.~.~.~.~.~.",
"~.~.~.~.~.~.~.~.~.~.~.~.~.~.~.~.~.~.~.~.~.~.~.~.~.~.~.~.~.~.~.~.~.~.~.~.~.~.~.~.~.~.~.~.~.~.~.~.~.~.~.~.~.~.~.~.~.~.~.~.~.~.~.~.",
"~.~.~.~.~.~.~.~.~.~.~.~.~.~.~.~.~.~.~.~.~.~.~.~.~.~.~.~.~.~.~.~.~.~.~.~.~.~.~.~.~.~.~.~.~.~.~.~.~.~.~.~.~.~.~.~.~.~.~.~.~.~.~.~.",
"~.~.~.~.~.~.~.~.~.~.~.~.~.~.~.~.~.~.~.~.~.~.~.~.~.~.~.~.~.~.~.~.~.~.~.~.~.~.~.~.~.~.~.~.~.~.~.~.~.~.~.~.~.~.~.~.~.~.~.~.~.~.~.~.",
"~.~.~.~.~.~.~.~.~.~.~.~.~.~.~.~.~.~.~.~.~.~.~.~.~.~.~.~.~.~.~.~.~.~.~.~.~.~.~.~.~.~.~.~.~.~.~.~.~.~.~.~.~.~.~.~.~.~.~.~.~.~.~.~.",
"~.~.~.~.~.~.~.~.~.~.~.~.~.~.~.~.~.~.~.~.~.~.~.~.~.~.~.~.~.~.~.~.~.~.~.~.~.~.~.~.~.~.~.~.~.~.~.~.~.~.~.~.~.~.~.~.~.~.~.~.~.~.~.~.",
"~.~.~.~.~.~.~.~.~.~.~.~.~.~.~.~.~.~.~.~.~.~.~.~.~.~.~.~.~.~.~.~.~.~.~.~.~.~.~.~.~.~.~.~.~.~.~.~.~.~.~.~.~.~.~.~.~.~.~.~.~.~.~.~."
};
