/* XPM */
static char *_6154_3cf04dda1fe7570d58ee67b2a8e7b3b1a3c2bc59a21dfebaa1163a48aaa40f0a[] = {
/* columns rows colors chars-per-pixel */
"64 64 225 2 ",
"   c #12130D",
".  c #18190F",
"X  c #1B1B13",
"o  c #171712",
"O  c #0F0F0C",
"+  c #1F2115",
"@  c #1F220F",
"#  c #222415",
"$  c #292D16",
"%  c #24241A",
"&  c #26291A",
"*  c #2A2D1B",
"=  c #262A15",
"-  c #2E321C",
";  c #2D3215",
":  c #31351C",
">  c #353A1D",
",  c #393E1C",
"<  c #333817",
"1  c #21230F",
"2  c #2B2B24",
"3  c #292825",
"4  c #2E3221",
"5  c #323523",
"6  c #363B22",
"7  c #393E24",
"8  c #393D2C",
"9  c #34362B",
"0  c #3B3C35",
"q  c #3C431B",
"w  c #3C4416",
"e  c #3C4324",
"r  c #3D442B",
"t  c #3E4927",
"y  c #3E4331",
"u  c #434B1C",
"i  c #424B17",
"p  c #4A541C",
"a  c #4F591C",
"s  c #4B5617",
"d  c #535E1C",
"f  c #515C17",
"g  c #56611C",
"h  c #5C681C",
"j  c #616E1D",
"k  c #66741E",
"l  c #434A24",
"z  c #41462B",
"x  c #444C2B",
"c  c #484D28",
"v  c #4B5423",
"b  c #4B532C",
"n  c #4E592B",
"m  c #495425",
"M  c #535C24",
"N  c #525C2B",
"B  c #414633",
"V  c #444B34",
"C  c #464B3A",
"Z  c #464A3A",
"A  c #4B5333",
"S  c #4D543A",
"D  c #475035",
"F  c #535D33",
"G  c #535B3B",
"H  c #515738",
"J  c #5A6523",
"K  c #5E6A23",
"L  c #5B642B",
"P  c #576227",
"I  c #5B6433",
"U  c #5B633C",
"Y  c #5C6638",
"T  c #616D23",
"R  c #626D2B",
"E  c #657223",
"W  c #6C7A23",
"Q  c #66722B",
"!  c #69752B",
"~  c #6D7A2B",
"^  c #697625",
"/  c #717E28",
"(  c #626B35",
")  c #636B3D",
"_  c #6A7533",
"`  c #6B753B",
"'  c #6B7537",
"]  c #727E33",
"[  c #737D3A",
"{  c #494B43",
"}  c #4E5343",
"|  c #515643",
" . c #555B44",
".. c #565B49",
"X. c #5A5D56",
"o. c #5D6348",
"O. c #5D6250",
"+. c #646B47",
"@. c #6D744B",
"#. c #6D7644",
"$. c #737B4D",
"%. c #717B42",
"&. c #656B53",
"*. c #656958",
"=. c #767C59",
"-. c #6C7254",
";. c #696D61",
":. c #6E7264",
">. c #737768",
",. c #797C76",
"<. c #74841E",
"1. c #748322",
"2. c #7B8C24",
"3. c #75832C",
"4. c #7C8B2E",
"5. c #78872E",
"6. c #7F9021",
"7. c #758233",
"8. c #7D8B33",
"9. c #76823B",
"0. c #7A863C",
"q. c #7D8A3B",
"w. c #798535",
"e. c #7A8543",
"r. c #7D8943",
"t. c #798349",
"y. c #7D8458",
"u. c #7D816D",
"i. c #7D8473",
"p. c #859727",
"a. c #818E39",
"s. c #839232",
"d. c #84933B",
"f. c #8C9B39",
"g. c #808F2C",
"h. c #95A92A",
"j. c #96A836",
"k. c #9EB138",
"l. c #95A929",
"z. c #A4B837",
"x. c #82941F",
"c. c #ADC13D",
"v. c #B0C43F",
"b. c #828E45",
"n. c #828D4B",
"m. c #859243",
"M. c #899645",
"N. c #8D9B43",
"B. c #8A954C",
"V. c #8B974A",
"C. c #919E4C",
"Z. c #848E55",
"A. c #8E9952",
"S. c #8D955B",
"D. c #8A9555",
"F. c #929D58",
"G. c #97A648",
"H. c #96A254",
"J. c #9BA757",
"K. c #A6B647",
"L. c #A1AE58",
"P. c #A7B557",
"I. c #838867",
"U. c #949C66",
"Y. c #8E956F",
"T. c #9DA569",
"R. c #A2AC64",
"E. c #A2AB6C",
"W. c #AAB564",
"Q. c #AAB566",
"!. c #A4AB73",
"~. c #ACB475",
"^. c #B5BD74",
"/. c #B4BC7B",
"(. c #B2BE67",
"). c #B5C748",
"_. c #B8C955",
"`. c #AEC143",
"'. c #B9C568",
"]. c #BAC576",
"[. c #C2D359",
"{. c #C6D567",
"}. c #C3CE79",
"|. c #CBD778",
" X c #D1DE77",
".X c #D3E07C",
"XX c #7E8285",
"oX c #858B85",
"OX c #8D9294",
"+X c #91968D",
"@X c #B7BC85",
"#X c #A5B08A",
"$X c #9AA3A5",
"%X c #ADB7BB",
"&X c #B1B8AE",
"*X c #9CA582",
"=X c #BDC385",
"-X c #C4CB84",
";X c #C5CA8A",
":X c #CBD488",
">X c #D2DB88",
",X c #C6CA94",
"<X c #D4DA95",
"1X c #CCD198",
"2X c #D8E288",
"3X c #DDE495",
"4X c #E1E79B",
"5X c #D9DDA4",
"6X c #CFD5B6",
"7X c #E5E9A9",
"8X c #E7E8B6",
"9X c #F0F0BC",
"0X c #DEE2A5",
"qX c #B8BFC0",
"wX c #B9C3CA",
"eX c #C8D1D7",
"rX c #F0EEC6",
"tX c #CAD7E6",
"yX c #D2DEE9",
"uX c #D6E2EB",
"iX c #D9E6F4",
"pX c #E4EDF5",
"aX c #E9F3FB",
"sX c #F4F8FB",
"dX c None",
/* pixels */
"dXdXdXdXdXdXdXdXdXdXdXdXdXdXdXdXdXdXdXdXdXdXdXdXdXdXdXdXdXdXdXdXdXdXdXdXdXdXdXdXdXdXdXdXdXdXdXdXdXdXdXdXdXdXdXdXdXdXdXdXdXdXdXdX",
"dXdXdXdXdXdXdXdXdXdXdXdXdXdXdXdXdXdXdXdXdXdXdXdXdXdXdXdXdXr.H.J.A.dXdXdXdXdXdXdXdXdXdXdXdXdXdXdXdXdXdXdXdXdXdXdXdXdXdXdXdXdXdXdX",
"dXdXdXdXdXdXdXdXdXdXdXdXdXdXdXdXdXdXdXdXdXdXdXdXdXdXdXdXA.F.R.-XR.H.A.dXdXdXdXdXdXdXdXdXdXdXdXdXdXdXdXdXdXdXdXdXdXdXdXdXdXdXdXdX",
"dXdXdXdXdXdXdXdXdXdXdXdXdXdXdXdXdXdXdXdXdXdXdXdXdXdXdXdXV.J.].8X:XT.H.S.dXdXdXdXdXdXdXdXdXdXdXdXdXdXdXdXdXdXdXdXdXdXdXdXdXdXdXdX",
"dXdXdXdXdXdXdXdXdXdXdXdXdXdXdXdXdXdXdXdXdXdXdXdXdXdXdXF.H.J.].9X1XJ.H.D.dXdXdXdX..| ..dXdXdXdXdXdXdXdXdXdXdXdXdXdXdXdXdXdXdXdXdX",
"dXdXdXdXdXdXdXdXdXdXdXdXdXdXdXdXdXdXdXdXdXdXS.F.dXdXdXA.A.R.:XrX@Xw.C.D.y.dX .o.+.+.) V dXdXdXdXdXdXdXdXdXdXdXdXdXdXdXdXdXdXdXdX",
"dXdXdXdXdXdXdXdXdXdXdXdXdXdXdXdXdXdXdXdXdXdXdX/.].T.n.n.D.J.].8X,Xd.C.t.o. .&.#.n.T.$...dXdXdXdXdXdXdXdXdXdXdXdXdXdXdXdXdXdXdXdX",
"dXdXdXdXdXdXdXdXdXdXdXdXdXdXdXdXdXdXdXdXdXdXdXdX^.;X-XJ.e.m.Q.3X>XL.r.G |  .@.n.-X~.$...dXdXdXdXdXdXdXdXdXdXdXdXdXdXdXdXdXdXdXdX",
"dXdXdXdXdXdXdXdXdXdXdXdXdXdXdXdXdXdXdXdXdXdXdXdXdXZ.S.-X^.[ A.>X<XP.U V H U n./.<XB.&.S ..O.dXdXdXdXdXdXdXdXdXdXdXdXdXdXdXdXdXdX",
"dXdXdXdXdXdXdXdXdXdXdXdXdXdXdXdXdXdXdXdXdX[ ] ' @.U V H E.^.b.^.>XZ.y t I 0.-X7XR.` ..D Z.=.&.dXdXdXdXdXdXdXdXdXdXdXdXdXdXdXdXdX",
"dXdXdXdXdXdXdXdXdXdXdXdXdXdXdXdXdXdX` _ [ [ 9.[ ` R R b ( Q.Q.A.].G r x _ ].5X:X[ G y I./.$.-.$XdXdXdXdXdXdXdXdXdXdXdXdXdXdXdXdX",
"dXdXdXdXdXdXdXdXdXdXdXdXdXdXdXdXn.e.B.R.W.W.H.N.a.] Q R M Q W.n.I.D r m q.=X:XA.Y D C ~.S.@.*.eXsXdXdXdXdXdXdXdXdXdXdXdXdXdXdXdX",
"dXdXdXdXdXdXdXdXdXdXdXdXdXdXdX0.M.L.;X7X7X4X<X|.{.C.[ ~ J p ] b.n r e M R.=X^.0.U V U Z.@.*.X.OXuXaXdXdXdXdXdXdXdXdXdXdXdXdXdXdX",
"dXdXdXdXdXdXdXdXdXdXdXdXdXdXqXU.n.M.F.L.'.|.>X>X|.$.r l N L R m._ q e m D.~.G.' o.r G O.X.} 3 9 oXeXpXdXdXdXdXdXdXdXdXdXdXdXdXdX",
"dXdXdXdXdXdXdXdXdXdXdXdXdXpXaXqX*.$.n.r.a.s.f.j.G.b.r 7 u J B.n.N.J w : b ].r.o.S r V V Z 0 e I +.>.eXuXdXdXdXdXdXdXdXdXdXdXdXdX",
"dXdXdXdXdXdXdXdXdXdXdXdXdXaXeXi.{ Z +.#.' ! ! ~ W ^ b x n ' W.J.Q.q.a t ) G._ &.S r 8 8 Z N d.q.I ( t.Y.iXdXdXdXdXdXdXdXdXdXdXdX",
"dXdXdXdXdXdXdXdXdXdXdXdXpX&XS.%.) H | G ) ( R T E E M c H R B.Q.R.C.M l n.L.( +.A 6 * 5 n N A [ H.J.9.Y tXiXdXdXdXdXdXdXdXdXdXdX",
"dXdXdXdXdXdXdXdXdXdXdXpX#Xd.G.m._ ~ ~ / _ S { H N M J N A v M B.C.] c F ^.0.F A 8 - 2 M a 6 F L.>X].b._ $XiXuXdXdXdXdXdXdXdXdXdX",
"dXdXdXdXdXdXdXdXdXdXdXeXb.N.}.,X] / a./ ~ I } { { 8 u v M M M v n v F d.B.v c 7 - - 6 l z b L.|.:XH.e.N :.eXiXdXdXdXdXdXdXdXdXdX",
"dXdXdXdXdXdXdXdXdXdXaX&XV.N.W.;X] a.W.N.g.Q Z 0 0 0 4 - , u R _ l l L a q 8 | 5 : : 5 9 8 ( U.].G.w.! e 3 OXiXuXdXdXdXdXdXdXdXdX",
"dXdXdXdXdXdXdXdXdXdXaX!.q.m.b.B.! a.<X}.L.3.M 8 z c N ` z l c N v , J u < , 5 : : 5 * : N B.S.b.M d a * X } wXuXdXdXdXdXdXdXdXdX",
"dXdXdXdXdXdXdXdXdXpXyXI.^ 5.b.0.! g.'.8X|.f./ u , T B.C.0.c % + # X : : q M [ a.[ G y l 7.5., - - u b 5 3 0 +XyXdXdXdXdXdXdXdXdX",
"dXdXdXdXdXdXdXdXdXaX%X*.Q ! q.0._ s.K.0X7X{.d./ p ~ d.5.g.~ < o + X * a a M +.$.` ( ..A s.2.c _ ` ' 9.w.e.r.b.U.#XdXdXdXdXdXdXdX",
"dXdXdXdXdXdXdXdXyXpXOX0 F Q / q.~ 3.G.<X7X<XL.s.^ ^ W s.g./ g $ X : R T i ; # 3 X + % F j.k p Q 9.H.].-X1X}.}.P.f.q.dXdXdXdXdXdX",
"dXdXdXdXdXdXdX .i.I.X.0  .! ~ q.~ 4.G.}.7X3X|.k.3.j g / / h f , + c M.J , # X O   X X M g.T d ] ^.4X9XrX8X<X>X'.G.8.9.dXdXdXdXdX",
"dXdXdXdXdXdXdX;.=.Y.U.$. .R T ! 0.H.L.P.|.2X0X}.g.^ f h / i w w + p ~ T p $ X   % % 2 a j W m.(.>X2X'.P.J.C.d.w.7.7.dXdXdXdXdXdX",
"dXdXdXdXdXdXdXdXqX>.>.!.E.9.M Q 0.r.J.C.(.2X3X7XW.a.h f j $ 1 , X $ w P W 5.' y & & q f k L.P.}.'.j.a.b.b.[ I ( U S dXdXdXdXdXdX",
"dXdXdXdXdXdXdXdXiXOXB } +.Z.b.R ] 9.w.M.L.-X2X3X2XP.h f i 1 1 c ) L f q T f.:X,X+.6 u f d.L.P.j.8.E R ` ( l  .Z.@.O.} dXdXdXdXdX",
"dXdXdXdXdXdXdXiXuXXXZ | @.` e.' L ) J Q M.H.-X|..X}.T s p d E M.}.>XL.a p T ( L ] w./ j d.N.3.j K h p A t.T./.T.=...Z dXdXdXdXdX",
"dXdXdXdXdXdXdXiXyXoX` n.n.b.B.F.R.F.B.] R 8.G.(.(.T.c h w.M R ~ a.L.-XM.f i i i T h / J _ T f s J J u l H U U S | | dXdXdXdXdXdX",
"dXdXdXdXdXdXdXuX#Xn.a.N.W.,X0X4X<X}.(.P.q.M K 2.G.L < J L o # u Q ] f.^.f.k f / 8./ a i i c i < $ % & - > > > 6 e 6 dXdXdXdXdXdX",
"dXdXdXdXdXdXdX#Xb.a.P.<X7X1X].P.C.a.4.Q ! M u u j T c p , c v : q T j / g.j d L._.k.k f f i % + # : l p P n P m x r V } dXdXdXdX",
"dXdXdXdXdXdXdXF.V.L.}.Q.J.C.m.w.` N v l l N l & # $ e > q L I < X # i s j j ] >X Xz.2.k h a X % * : b n.~./.~.Z.t.Y  .| V dXdXdX",
"dXdXdXdXdXdXF.F.N.M.] ' $.` H B 9 2 * * * 6 c 5 * 6 t 6 : + + . O > f f k p.}.7X|.z.2.k k L : z b z : 6 o.Y.7XrX;X!.S.#.S D dXdX",
"dXdXdXdXdX| $.F.n.G Z y e u u < 2 0 : : - % X X X $ L L + O   + . , j k g.K.7X7X[.p.6.W 3.I R F.-X@XS.F r r I.8X9XrX5X~.%. .dXdX",
"dXdXdXdX{ +.S.@.Z 8 N ] ! M > , p d j T J , o # $ 6 > - & o O o   ; ~ / p.K.9X>Xl.p.<.W _ 8 8 ) U.1X8X/.` V t @.D.F.y.t.@.*.dXdX",
"dXdXdXdX&.=.dXdXB M _ R z 5 6 u M v p a > > I A.e.v - & &     O O % 5./ g.z.8X{.x.<.1./ : o 9 C +.Z.1XrX,X$.A V H H  .o.dXdXdXdX",
"dXdXdX| dXdXdXdX=.>.} 9 2 3 3 3 2 8 8 5 8 N ].;X` 5 3 6 < . .   .   T W <.k.>Xj.2.k ! , O   & B C H S.8XrX!.U V  .,.O.dXdXdXdXdX",
"dXdXdXdXdXdXdXdXdXwX{ % 3 3 3 2 3 9 0 B V %.5XS.8 6 n d - X = &   . i k W h.k.2.k h - . . > v : 6 D U S.8X1Xt.H | $XdXdXdXdXdXdX",
"dXdXdXdXdXdXdXdXdXyXXX3 3 2 2 5 2 3 y B c $.,XF 7 T W a = = : =   ; k f.1.x./ j p $ , ; @ = X o * C V F !.6X!.+.D dXdXdXdXdXdXdX",
"dXdXdXdXdXdXdXdXdXdXdX8 t l c J E R Z Z z ( #.8 e T h : - + - e . i h.[.h.1.K l & $ X X < # o   = l A V Y S.=Xt.S dXdXdXdXdXdXdX",
"dXdXdXdXdXdXdXdXdXy I ~ P T a.C./ M V 8 z D 8 - = w q 6 : = + + X j z.K.l.j e & X X o X X ; # X . & - y y o.y.%.G dXdXdXdXdXdXdX",
"dXdXdXdXdXdXdXdXS S L ~ 4.j.%.b c z c N S | 2 X = 6 m Q _ T a > - j z.z.^ > & # & : i : o + ; - # 5 9 3 2 ;.u.o.S dXdXdXdXdXdXdX",
"dXdXdXdXdXdXdXA 7.e.U F.Z.N v c l 2 $ , v 8 & $ e d <.j.P.h.6.q , u p.k q $ X B C M k / P : & = & > b V x O.$X%XdXdXdXdXdXdXdXdX",
"dXdXdXdXdXdXz R 7.H +XuX>.h E q e 6 > 7 : # - x t g p.)._.l.j t z 7 P q - X # x C I h.).}.h.h q 2 6 l n o.( #.&.dXdXdXdXdXdXdXdX",
"dXdXdXdXdXdXA dXdXdXdXi.3.6.J q - 5 : : $ # & b t g l.).).f.t n & u z N >   . : x 3.z.[. Xj.j m x 5 * i ;.%XoXdXdXdXdXdXdXdXdXdX",
"dXdXdXdXdXdXdXdXdXdXdXL j.W e > > > > > $ X # l t g h._.`.2.t h $ & l ] L $   - t ^ z. Xc.4.t U U 6 2 8 y $XdXdXdXdXdXdXdXdXdXdX",
"dXdXdXdXdXdXdXdXdXdXV ~ K e 5 4 ; v 3.u % % o : t t 4.`.3.m r.2.<.a , > R R & 2 e n k._.l.g H y.S.+.S oXOXOXdXdXdXdXdXdXdXdXdXdX",
"dXdXdXdXdXdXdXdXdXdXD F V r 6 t P 3.g q : q q + r e d 8.t w.'.G.z.T e & > a M 6 r t 8.4.g I T.y.$.U.>.,.$XdXdXdXdXdXdXdXdXdXdXdX",
"dXdXdXdXdXdXdXdXdXdXdXdXdXt t I 5.M e q <.6.f.7.: 6 t m P K..X).).s.x : 2 * q u A *.e.t ) =X2Xy.O.y.Y.>.;.dXdXdXdXdXdXdXdXdXdXdX",
"dXdXdXdXdXdXdXdXdXdXdXdXdXn ) q.n q q <.c._._.k.q 4 t v 6.`.3X2X).4.F r * & % $ *.i.S t.1X9X2X=Xu.:.=.=.>.dXdXdXdXdXdXdXdXdXdXdX",
"dXdXdXdXdXdXdXdXdXdXdXdXn I Y P m P p.). X Xv.p.= 2 t M k _..X3X).7.A G c 6 & + { i.t.|.7XrX3X@X+X;.:.-.:.dXdXdXdXdXdXdXdXdXdXdX",
"dXdXdXdXdXdXdXdXdXdXdXdXdXU b F I 5.). X3X{.z.g + 3 C t n k._.2X).f.D H N l S r 2 *.i.].2X7X2X~.oXdXdX>.;.dXdXdXdXdXdXdXdXdXdXdX",
"dXdXdXdXdXdXdXdXdXdXdXdXdXdXdXdX` f._.2X.X).s.e 3 + 3 y t 7.K.>X_.d.b V P - D C + } i.~. X7X2X'.I.dXdXdXdXdXdXdXdXdXdXdXdXdXdXdX",
"dXdXdXdXdXdXdXdXdXdXdXdXdXdXdXI.` l._.4X Xc.3.i.,.X.{ { t A _ K.P.t.) V v e C r 0 dXu.Y.(.3X>XT.y.dXdXdXdXdXdXdXdXdXdXdXdXdXdXdX",
"dXdXdXdXdXdXdXdXdXdXdXdXdXdXdXU P l. X X_.f.#.wXyXeXwX%X$X..t e.V.$.&.y c 7  .t dXdXdX=.u.].'.$.u.dXdXdXdXdXdXdXdXdXdXdXdXdXdXdX",
"dXdXdXdXdXdXdXdXdXdXdXdXdXdXdXo.P k.{.{.k.~ $.wXtXyXyXyXuX%X>.&.+.Y Z y b z ..dXdXdXdX>.>.I.T.@.dXdXdXdXdXdXdXdXdXdXdXdXdXdXdXdX",
"dXdXdXdXdXdXdXdXdXdXdXdXdXdXdXo.I h.{.`.E n dXdXdXdXeXtXtXyXtX%Xi.G 8 y r x  .dXdXdXdXdXdX,.,.:.dXdXdXdXdXdXdXdXdXdXdXdXdXdXdXdX",
"dXdXdXdXdXdXdXdXdXdXdXdXdXdXdXU n j.{.j.m D dXdXdXdXdXdXdXdXdXdXdXO.r Z y S dXdXdXdXdXdXdXdXdXdXdXdXdXdXdXdXdXdXdXdXdXdXdXdXdXdX",
"dXdXdXdXdXdXdXdXdXdXdXdXdXdXdXdXD 5.v.W t dXdXdXdXdXdXdXdXdXdXdXdXdXdXZ C ..dXdXdXdXdXdXdXdXdXdXdXdXdXdXdXdXdXdXdXdXdXdXdXdXdXdX",
"dXdXdXdXdXdXdXdXdXdXdXdXdXdXdXdX{ Y 3.e dXdXdXdXdXdXdXdXdXdXdXdXdXdXdXdX| dXdXdXdXdXdXdXdXdXdXdXdXdXdXdXdXdXdXdXdXdXdXdXdXdXdXdX",
"dXdXdXdXdXdXdXdXdXdXdXdXdXdXdXdXdXo.c dXdXdXdXdXdXdXdXdXdXdXdXdXdXdXdXdXdXdXdXdXdXdXdXdXdXdXdXdXdXdXdXdXdXdXdXdXdXdXdXdXdXdXdXdX",
"dXdXdXdXdXdXdXdXdXdXdXdXdXdXdXdXdXdXdXdXdXdXdXdXdXdXdXdXdXdXdXdXdXdXdXdXdXdXdXdXdXdXdXdXdXdXdXdXdXdXdXdXdXdXdXdXdXdXdXdXdXdXdXdX",
"dXdXdXdXdXdXdXdXdXdXdXdXdXdXdXdXdXdXdXdXdXdXdXdXdXdXdXdXdXdXdXdXdXdXdXdXdXdXdXdXdXdXdXdXdXdXdXdXdXdXdXdXdXdXdXdXdXdXdXdXdXdXdXdX"
};
