/* XPM */
static char *_5880_dd558460ff350352410bc9b01403489eecef1e5db7454e805d6407df6e94f4ff[] = {
/* columns rows colors chars-per-pixel */
"64 64 98 2 ",
"   c #1E1F20",
".  c #262727",
"X  c gray21",
"o  c #373838",
"O  c #3C3E3E",
"+  c #3E4040",
"@  c #434444",
"#  c #464949",
"$  c #4C4D4D",
"%  c #544E4D",
"&  c #4E5151",
"*  c #535454",
"=  c #575959",
"-  c #5A5C5C",
";  c #625653",
":  c #615A58",
">  c #5E605F",
",  c #716F4E",
"<  c #6B6D5F",
"1  c #727257",
"2  c #797751",
"3  c #5C5F60",
"4  c #5E6161",
"5  c #626565",
"6  c #6B6665",
"7  c #656768",
"8  c #66696A",
"9  c #6A6D6D",
"0  c #7B6F6D",
"q  c #7A7A65",
"w  c #6C6F70",
"e  c #6E7171",
"r  c #737575",
"t  c #747778",
"y  c #76797A",
"u  c #7A7D7D",
"i  c #836A64",
"p  c #917B76",
"a  c #9A7A74",
"s  c #927E79",
"d  c #A57D75",
"f  c #878566",
"g  c #8D8D6D",
"h  c #B0877F",
"j  c #A4A06B",
"k  c #B1AD6C",
"l  c #D0C872",
"z  c #7B7F80",
"x  c #7E8384",
"c  c #818585",
"v  c #858A84",
"b  c #838788",
"n  c #86898A",
"m  c #8A8C8D",
"M  c #8C8F90",
"N  c #8E9191",
"B  c #939494",
"V  c #949798",
"C  c #969999",
"Z  c #9B9C9C",
"A  c #B98B81",
"S  c #9C9FA0",
"D  c #9EA0A1",
"F  c #A3A4A4",
"G  c #A5A7A8",
"H  c #A7AAAA",
"J  c #ABACAC",
"K  c #ADAFB0",
"L  c #AFB1B1",
"P  c #B3B4B4",
"I  c #B7B8B7",
"U  c #B6B7B8",
"Y  c #B7B8B8",
"T  c #BBBCBC",
"R  c #C18C81",
"E  c #C88C80",
"W  c #D2968A",
"Q  c #DA998C",
"!  c #E19B8D",
"~  c #E69F90",
"^  c #EBA192",
"/  c #F0A595",
"(  c #FBAC9C",
")  c #BDBFC0",
"_  c #BFC0C0",
"`  c #C4C4C4",
"'  c #C7C8C8",
"]  c #CBCBCB",
"[  c #D4D4D4",
"{  c #D7D8D9",
"}  c #DBDBDB",
"|  c #DFE0E0",
" . c #E4E4E4",
".. c #E7E8E8",
"X. c #ECECEC",
"o. c #F4F4F4",
"O. c #FCFCFC",
"+. c None",
/* pixels */
"+.+.+.+.+.+.+.+.+.+.+.+.+.+.+.+.+.+.+.+.+.+.+.+.+.+.+.+.+.+.+.+.+.+.+.+.+.+.+.+.+.+.+.+.+.+.+.+.+.+.+.+.+.+.+.+.+.+.+.+.+.+.+.+.",
"+.+.+.+.+.+.+.+.+.+.+.+.+.+.+.+.+.+.+.+.+.+.+.+.+.+.+.+.+.+.+.+.+.+.+.+.+.+.+.+.+.+.+.+.- +.+.+.+.+.+.+.+.+.+.+.+.+.+.+.+.+.+.+.",
"+.+.+.+.+.+.+.+.+.+.+.+.+.+.+.+.+.+.+.+.+.+.+.+.+.+.+.+.+.+.+.+.+.+.+.+.+.+.+.+.+.+.+.+.5 +.+.+.+.+.+.+.+.+.+.+.+.+.+.+.+.+.+.+.",
"+.+.+.+.+.+.+.+.+.+.+.+.+.+.+.+.+.+.+.+.+.+.+.+.+.+.+.+.+.+.+.+.+.+.+.+.* +.+.+.+.+.+.8 - +.+.+.+.+.+.+.+.+.+.+.+.+.+.+.+.+.+.+.",
"+.+.+.+.+.+.+.+.+.+.+.+.+.+.+.+.+.+.+.+.+.+.+.+.+.+.+.+.+.+.+.+.+.+.+.+.d 6 +.+.+.+.+.8 * +.+.+.+.+.+.+.+.+.+.+.+.+.+.+.+.+.+.+.",
"+.+.+.+.+.+.+.+.+.+.+.+.+.+.+.+.+.+.+.+.+.+.+.+.+.+.+.+.+.+.+.+.+.+.+.+.^ h - +.+.u = - : +.+.+.+.+.+.+.+.+.+.+.+.+.+.+.+.+.+.+.",
"+.+.+.+.+.+.+.+.+.+.+.+.+.+.+.+.+.+.+.+.+.+.+.+.+.+.+.+.+.+.+.+.+.+.+.+./ ^ s 4 5 e 8 w ; +.+.+.+.+.+.+.+.+.+.+.+.+.+.+.+.+.+.+.",
"+.+.+.+.+.+.+.+.+.+.+.+.+.+.+.+.+.+.+.n +.+.+.+.+.+.+.+.+.+.+.+.+.+.+.E ( ^ A u t x c u 6 +.+.+.+.+.+.+.+.+.+.+.+.+.+.+.+.+.+.+.",
"+.+.+.+.+.+.+.+.+.+.+.+.+.+.+.+.+.+.+. .{ +.+.+.+.+.+.+.+.+.+.+.+.+.+.~ ( A a u x x x x x 7 +.+.+.+.+.+.+.+.+.+.+.+.+.+.+.+.+.+.",
"+.+.+.+.+.+.+.+.+.+.+.+.+.+.+.+.+.+.+.X.X.+.+.+.+.+.+.- t t +.+.+.+.+.^ Q 0 z x x x b x x x +.+.+.+.+.+.+.+.+.+.+.+.+.+.+.+.+.+.",
"+.+.+.+.+.+.+.+.+.+.+.+.+.+.+.+.: +.+.T O.T +.+.+.+.e x x x x 9 +.+.+.W W p x x x x y e x x e +.+.+.+.+.+.+.+.+.+.+.+.+.+.+.+.+.",
"+.+.+.+.+.+.+.+.+.+.+.+.+.+.+.I X.T _ T X. .+.+.+.y c x x x x b u w % i s s x x x x O   9 b e . +.+.+.+.+.+.+.+.+.+.+.+.+.+.+.+.",
"+.+.+.+.+.+.+.+.+.+.+.+.+.+.+.u F } O.O...o.+.+.y x x x x x c x x x x 9 3 y x x x x e 4 + x 8 +.+.+.+.+.+.+.+.+.+.+.+.+.+.+.+.+.",
"+.+.+.+.+.+.+.+.+.+.+.+.+.+.+.+.t o.o.X.O.O.F r x x x b x x x x x x x x w 8 x x x x x v 2 > < +.+.+.+.+.+.+.+.+.+.+.+.+.+.+.+.+.",
"+.+.+.+.+.+.+.+.+.+.+.+.+.+.+.+.+.S D |  .O.Y x x x x 9 e x x c x x x b x 8 x x x x x v l , 1 +.+.+.+.+.+.+.+.+.+.+.+.+.+.+.+.+.",
"+.+.+.+.+.+.+.+.+.+.+.+.+.+.+.+.+.+.+.X.X.o._ z u 7 # +.+.= t c b x x x x 9 x x x x x z l j 4 * - +.+.+.+.+.+.+.+.+.+.+.+.' +.+.",
"+.+.+.+.+.+.+.+.+.+.+.+.+.+.+.+.+.+.+.` O.O.o._ M +.+.+.+.+.+.8 x x x x x 9 x x u w u u k f u e 8 +.+.+.+.+.+.+.+.+.+.` ..X.+.+.",
"+.+.+.+.+.+.+.+.+.+.+.+.+.+.+.+.+.+.+.+.I o.O.O.o.+.+.+.+.+.+.+.9 x x x u t x x b P u t g q m Z +.+.+.+.+.+.+.+.+.+. .O.o.Z +.+.",
"+.+.+.+.+.+.+.+.+.+.+.+.+.+.+.+.+.+.+.+.t P '  .O.F +.+.+.+.+.+.+.9 x x x x w 9 b { M 8 c } B m +.+.+.+.+.+.+.+.+.' O.o.` Z [ +.",
"+.+.+.+.+.+.+.+.+.+.+.+.+.+.+.+.+.+.+.` s u C ` I +.+.+.+.+.+.+.+.e x x x x e t c ..o.I [ O...C 9 5 u e 7 - 4 9 T O.O.O.o.O.O.P ",
"+.+.+.+.+.+.+.+.+.+.F _ ..+.+.+.B L P C N x = 9 G +.+.+.+.+.+.+.e x x x x x x t c  .O.O...[ N x x x x x x x x C o.O.O.O...} ` u ",
"+.+.+.+.+.+.+.+.+.F } X.o.X.o.[ } X...` _ T y = * +.+.+.+.+.+.9 x x x x x c c x t ' O.O.O.F t x x x x x x n x T O...O.o.X...B +.",
"+.+.+.+.+.+.+.+.+.| o.X.O.o.O.X.U ..X.} D m C 9 - @ +.+.+.5 t x x x n z c P m u t m ..X.T u x x c x b b x y 8 T O.} T +.+.c +.+.",
"+.+.+.+.+.+.+.+.{ X. .o.o.o.L ' D | o.O.] - m T F m x u u x x x x x y x T T b r t t e 9 8 y x x x x e 4 + +.+.F X.O.J +.+.+.+.+.",
"+.+.+.+.+.+.+.m r ` ..X. .Z T ..' B I  .o.P c _ C * c c n c x x x x n T ' G C c O o +.+.+.o * 4 - u +.+.+.+.+.+.C o.[ +.+.+.+.+.",
"+.+.+.+.+.+.u u Z  .X.o._ [ | F X.} B r t F : B J & @ r z c c x y N _ ` ` T T r +.+.+.+.+.+.+.+.+.+.+.+.+.+.+.+.+.C M +.+.+.+.+.",
"+.+.+.+.+.J Y L X... .I J ..} ` X.O...B = F J n F 9 # 8 r c u u D ` ` ` ` ` J +.+.+.+.+.+.+.+.+.+.+.+.+.+.+.+.+.+.+.+.+.+.+.+.+.",
"+.+.+.+.+.` F ` ` T T } ` [ o.o.O.O.O.X.m @ L J c B 5 5 r c Z T ' ` ` ` ` L +.+.+.+.+.+.+.+.+.+.+.+.+.+.+.+.+.+.+.+.+.+.+.+.+.+.",
"+.+.+.+.D F B m F ] X. .[ X.o.X.o.X.[ o...- 4 D c C m t u c ` ` ` ` ` ` J +.+.+.+.+.+.+.+.+.+.+.+.+.+.+.+.+.+.+.+.+.+.+.+.+.+.+.",
"+.+.+.+.B G 4 H ] } L K F I ....' F F X.o.I t z p u C u 9 y T ` ` ` ` D +.+.+.+.+.+.+.+.+.+.+.+.+.+.+.+.+.+.+.+.+.+.+.+.+.+.+.+.",
"+.+.+.z C y 3 V J r n Z B c L o.| F _ B _ P I p y N t C 9 r G ' ` ' J +.+.+.+.+.+.+.+.+.+.+.+.+.+.+.+.+.+.+.+.+.+.+.+.+.+.+.+.+.",
"+.+.+.B u < t G s 4 z _ ] m T I X.F B u c F J B 9 8 u B n 9 F ` ' L +.+.+.+.+.+.+.+.+.+.+.+.+.+.+.+.+.+.+.+.+.+.+.+.+.+.+.+.+.+.",
"+.+.x r 7 3 D F 3 9 K o.] T ] T G M z n 9 Z G Z c @ 8 u D t P ' I +.+.+.+.+.+.+.+.+.+.+.+.+.+.+.+.+.+.+.+.+.+.+.+.+.+.+.+.+.+.+.",
"+.+.x 3 w 7 S c 3 n ) S y D _ I B J S S c t D ' D - 6 r G t G T +.+.+.+.+.+.+.+.+.+.+.+.+.+.+.+.+.+.+.+.+.+.+.+.+.+.+.+.+.+.+.+.",
"+.+.z 3 y t n w w P N z u g u J c ` P [ _ t B Z T x 7 5 G c C +.+.+.+.+.+.+.+.+.+.+.+.+.+.+.+.+.+.+.+.+.+.+.+.+.+.+.+.+.+.+.+.+.",
"+.b w 9 x z n w z N z V G H I e : t v Z _ J 9 n c t u u } Z y +.+.+.+.+.+.+.+.+.+.+.+.+.+.+.+.+.+.+.+.+.+.+.+.+.+.+.+.+.+.+.+.+.",
"+.x 4 t n x b 7 z n x x x x x r J ' B n n u 5 x u > x C X.F t +.+.+.+.+.+.+.+.+.+.+.+.+.+.+.+.+.+.+.+.+.+.+.+.+.+.+.+.+.+.+.+.+.",
"+.x 3 y x b z 7 w x N n x N L r ' o.} V n 8 5 b t - m m X.D u +.+.+.+.+.+.+.+.+.+.+.+.+.+.+.+.+.+.+.+.+.+.+.+.+.+.+.+.+.+.+.+.+.",
"+.y 4 w x n e 8 8 n K x x n ` ` [ X.| K n u e c 9 5 Z 8 ' M x +.+.+.+.+.+.+.+.+.+.+.+.+.+.+.+.+.+.+.+.+.+.+.+.+.+.+.+.+.+.+.+.+.",
"b e 8 7 S z 9 t t S S x x x S ] u V m b m x r r 8 5 C 8 B x m +.+.+.+.+.+.+.+.+.+.+.+.+.+.+.+.+.+.+.+.+.+.+.+.+.+.+.+.+.+.+.+.+.",
"x 9 x t C 4 8 B x C Z x x M S z b b x x b x z w 3 3 M e m y n +.+.+.+.+.+.+.+.+.+.+.+.+.+.+.+.+.+.+.+.+.+.+.+.+.+.+.+.+.+.+.+.+.",
"n w B t B = 5 D n N D x x y 9 + t e x b D n m V - - m u n t n +.+.+.+.+.+.+.+.+.+.+.+.+.+.+.+.+.+.+.+.+.+.+.+.+.+.+.+.+.+.+.+.+.",
"m y N e n = 4 t x x m x x x x t B b x x G B u m 3 8 B z e 9 +.+.+.+.+.+.+.+.+.+.+.+.+.+.+.+.+.+.+.+.+.+.+.+.+.+.+.+.+.+.+.+.+.+.",
"n z m 9 B - 9 9 e x n b M M x T m x x x H N e x 5 m m 8 5 t +.+.+.+.+.+.+.+.+.+.+.+.+.+.+.+.+.+.+.+.+.+.+.+.+.+.+.+.+.+.+.+.+.+.",
"z D T y C - y c 9 x m T ....] ) ) x x N J n 8 t e N x e 4 x +.+.+.+.+.+.+.+.+.+.+.+.+.+.+.+.+.+.+.+.+.+.+.+.+.+.+.+.+.+.+.+.+.+.",
"r G | V c - c c 4 t m C } O.L x D n x m m x 9 9 x x x t 5 x +.+.+.+.+.+.+.+.+.+.+.+.+.+.+.+.+.+.+.+.+.+.+.+.+.+.+.+.+.+.+.+.+.+.",
"t T { V u - x u 7 z n b Z ' G D N x x x x m y 5 b x x e 9 x +.+.+.+.+.+.+.+.+.+.+.+.+.+.+.+.+.+.+.+.+.+.+.+.+.+.+.+.+.+.+.+.+.+.",
"y U _ p u t b c t T T Z x t x [ ' D H N x N e e n u x 4 y +.+.+.+.+.+.+.+.+.+.+.+.+.+.+.+.+.+.+.+.+.+.+.+.+.+.+.+.+.+.+.+.+.+.+.",
"x x D e 9 m T Z c z ' { P ' z J r c 9 u V L 3 u b w t - x +.+.+.+.+.+.+.+.+.+.+.+.+.+.+.+.+.+.+.+.+.+.+.+.+.+.+.+.+.+.+.+.+.+.+.",
"x e J 9 - 7 K ' C 9 n Z B I B ] J B r J ` z * M N 4 9 7 c +.+.+.+.+.+.+.+.+.+.+.+.+.+.+.+.+.+.+.+.+.+.+.+.+.+.+.+.+.+.+.+.+.+.+.",
"c e L t 9 # m Z G B w m u Z L _ ] T } X.V 3 7 L B 3 7 z +.+.+.+.+.+.+.+.+.+.+.+.+.+.+.+.+.+.+.+.+.+.+.+.+.+.+.+.+.+.+.+.+.+.+.+.",
"- 8 C x c * t Z G F u c m L | T U N ] L r - M F 7 5 x N +.+.+.+.+.+.+.+.+.+.+.+.+.+.+.+.+.+.+.+.+.+.+.+.+.+.+.+.+.+.+.+.+.+.+.+.",
"+.9 t n u 9 9 x _ P I B Y F  .o.Z p n G z u J N - m B x +.+.+.+.+.+.+.+.+.+.+.+.+.+.+.+.+.+.+.+.+.+.+.+.+.+.+.+.+.+.+.+.+.+.+.+.",
"+.8 e u B r p r u ` O.| D G ]  . .L J L T [ ' S r L B +.+.+.+.+.+.+.+.+.+.+.+.+.+.+.+.+.+.+.+.+.+.+.+.+.+.+.+.+.+.+.+.+.+.+.+.+.",
"+.- x w C B c D * w X.X.{ o.X.X.o.o.] o. .T D M C J F +.+.+.+.+.+.+.+.+.+.+.+.+.+.+.+.+.+.+.+.+.+.+.+.+.+.+.+.+.+.+.+.+.+.+.+.+.",
"+.+.t = e C v T Z o F O.O.O.o.O.X.' ] } T T ] _ F ' +.+.+.+.+.+.+.+.+.+.+.+.+.+.+.+.+.+.+.+.+.+.+.+.+.+.+.+.+.+.+.+.+.+.+.+.+.+.",
"+.+.7 - $ u Z m J m 4 G o.o. .Y X.| T ` X.X...G I +.+.+.+.+.+.+.+.+.+.+.+.+.+.+.+.+.+.+.+.+.+.+.+.+.+.+.+.+.+.+.+.+.+.+.+.+.+.+.",
"+.+.- 9 O - P u 6 J 0 t D  .} D X.` [ o.o. .x p 6 +.+.+.+.+.+.+.+.+.+.+.+.+.+.+.+.+.+.+.+.+.+.+.+.+.+.+.+.+.+.+.+.+.+.+.+.+.+.+.",
"+.+.+.r u - F T u ` X.| J V '  .D F ..o. .P t v +.+.+.+.+.+.+.+.+.+.+.+.+.+.+.+.+.+.+.+.+.+.+.+.+.+.+.+.+.+.+.+.+.+.+.+.+.+.+.+.",
"+.+.+.+.u m G F w < { o.O.[ V p T X.o.X.X. .] +.+.+.+.+.+.+.+.+.+.+.+.+.+.+.+.+.+.+.+.+.+.+.+.+.+.+.+.+.+.+.+.+.+.+.+.+.+.+.+.+.",
"+.+.+.+.X # > t D n G { o.} U X.O.O.+.[ o.[ +.+.+.+.+.+.+.+.+.+.+.+.+.+.+.+.+.+.+.+.+.+.+.+.+.+.+.+.+.+.+.+.+.+.+.+.+.+.+.+.+.+.",
"+.+.+.+.+.+.* * c ` ` ' ....{ } +.+.+...' +.+.+.+.+.+.+.+.+.+.+.+.+.+.+.+.+.+.+.+.+.+.+.+.+.+.+.+.+.+.+.+.+.+.+.+.+.+.+.+.+.+.+.",
"+.+.+.+.+.+.+.O - m Z M G Z +.+.+.+.{ F +.+.+.+.+.+.+.+.+.+.+.+.+.+.+.+.+.+.+.+.+.+.+.+.+.+.+.+.+.+.+.+.+.+.+.+.+.+.+.+.+.+.+.+.",
"+.+.+.+.+.+.+.+.+.$ r +.+.+.+.+.+.+.+.+.+.+.+.+.+.+.+.+.+.+.+.+.+.+.+.+.+.+.+.+.+.+.+.+.+.+.+.+.+.+.+.+.+.+.+.+.+.+.+.+.+.+.+.+."
};
